<svg xmlns="http://www.w3.org/2000/svg" width="76.285" height="76.284" viewBox="0 0 76.285 76.284">
<g id="plastic-surgery" transform="translate(0 -0.5)">
    <path id="Path_28196" data-name="Path 28196" d="M164.888,34.072l-9.3-14.885A48.777,48.777,0,0,0,157.769,4.74V2.735a2.235,2.235,0,0,0-4.47,0V4.74a44.323,44.323,0,0,1-2.279,14.044,2.234,2.234,0,0,0,.225,1.892s6.415,10.266,9.853,15.765a2.772,2.772,0,0,1-.393,3.444l-4.358,4.358a2.237,2.237,0,0,0-.624,1.213l-2.338,14.012-2.244,4.487c-.29.58-.236.9-.236,2.4a5.945,5.945,0,0,1-5.938,5.938c-4.589,0-21.325.7-35.731-13.709a2.235,2.235,0,0,0-3.16,3.161,51.3,51.3,0,0,0,6.45,5.467l-2.2,6.609a2.235,2.235,0,1,0,4.24,1.414l1.837-5.512a52.354,52.354,0,0,0,28.565,7.039,10.419,10.419,0,0,0,10.407-10.407v-.875c2.322-4.644,2.287-4.492,2.364-4.948L160.014,46.9l3.852-3.852A7.22,7.22,0,0,0,164.888,34.072Zm0,0" transform="translate(-89.715)" fill="#21b37e"></path>
    <path id="Path_28197" data-name="Path 28197" d="M18.833,43.43A2.235,2.235,0,0,0,16.6,41.2h-2.1C9.968,41.2,4.47,37.506,4.47,31.638a9.923,9.923,0,0,1,9.912-9.911c3.334,0,12.228.491,20.142-7.425L44.51,4.315a2.235,2.235,0,1,0-3.161-3.16l-9.987,9.986c-6.634,6.635-14.175,6.116-16.981,6.116A14.4,14.4,0,0,0,0,31.639,14.492,14.492,0,0,0,14.494,45.665h2.1A2.235,2.235,0,0,0,18.833,43.43Zm0,0" transform="translate(0 0)" fill="#21b37e"></path>
    <path id="Path_28198" data-name="Path 28198" d="M55.222,165.638a2.235,2.235,0,0,0,0-4.47,7.022,7.022,0,1,0,0,14.045,2.235,2.235,0,1,0,0-4.47,2.553,2.553,0,1,1,0-5.105Zm0,0" transform="translate(-41.018 -136.729)" fill="#21b37e"></path>
    <path id="Path_28199" data-name="Path 28199" d="M185.606,353.217A2.234,2.234,0,0,0,190,352.6l7.138,4.122a2.235,2.235,0,1,0,2.235-3.871l-7.138-4.122a2.234,2.234,0,0,0-1.661-4.111l-4.624,1.239a2.235,2.235,0,0,0-1.58,2.737Zm0,0" transform="translate(-156.832 -292.78)" fill="#21b37e"></path>
    <path id="Path_28200" data-name="Path 28200" d="M220.609,123.034a2.234,2.234,0,0,0-3.16,0l-3.385,3.385a2.235,2.235,0,0,0,0,3.16l3.385,3.386a2.233,2.233,0,0,0,3.494-2.73h8.244a2.235,2.235,0,1,0,0-4.47h-8.244A2.234,2.234,0,0,0,220.609,123.034Zm0,0" transform="translate(-181.613 -103.72)" fill="#21b37e"></path>
    <path id="Path_28201" data-name="Path 28201" d="M174.464,211.6a2.235,2.235,0,0,0-2.235-2.235h-4.788a2.235,2.235,0,0,0-2.235,2.235v4.788a2.234,2.234,0,0,0,4.4.54l5.828,5.828a2.235,2.235,0,1,0,3.161-3.16l-5.829-5.829A2.234,2.234,0,0,0,174.464,211.6Zm0,0" transform="translate(-140.592 -177.747)" fill="#21b37e"></path>
</g>
</svg>