<svg xmlns="http://www.w3.org/2000/svg" width="57.211" height="76.284" viewBox="0 0 57.211 76.284">
    <path id="Cancer_Ribbon" d="M70.408,64.577A226.247,226.247,0,0,1,54.224,48.341c6.8-8.966,12.222-18.208,12.222-24.886a2.284,2.284,0,0,0-.072-.578C64.134,13.915,59.234,2,42.607,2S21.08,13.915,18.84,22.877a2.284,2.284,0,0,0-.072.578c0,5.988,3.992,14.145,12.2,24.9A228.212,228.212,0,0,1,14.806,64.577,2.387,2.387,0,0,0,14.7,68.05l9.536,9.536a2.382,2.382,0,0,0,3.315.053c.656-.614,7.382-6.958,15.061-15.424,7.949,8.745,14.979,15.352,15.055,15.424a2.381,2.381,0,0,0,3.314-.053l9.536-9.536a2.387,2.387,0,0,0-.107-3.473ZM42.622,34.063a92.841,92.841,0,0,1-7.42-11.92c.133-.238,2.012-3.456,7.405-3.456,5.48,0,7.342,3.338,7.4,3.45,0,.006.007.01.01.014a92.324,92.324,0,0,1-7.4,11.911ZM54.228,10.271a34.8,34.8,0,0,1-2.05,7.12,13.58,13.58,0,0,0-9.571-3.472,13.635,13.635,0,0,0-9.563,3.453,34.4,34.4,0,0,1-2.018-7.106c2.757-2.144,6.461-3.5,11.581-3.5s8.86,1.348,11.621,3.5ZM23.541,23.735a32.264,32.264,0,0,1,3.581-9.089c1.886,6.819,6.073,14.66,12.508,23.407-1.781,2.293-3.616,4.525-5.448,6.655-8.5-11.315-10.537-17.6-10.642-20.973Zm2.421,48.837-6.12-6.12c7.222-6.658,32.52-31.1,38.277-51.764a32.312,32.312,0,0,1,3.555,9.047c-.364,12.31-24.449,38-35.712,48.837Zm33.3-.007c-2.57-2.493-7.8-7.686-13.456-13.932,1.822-2.087,3.657-4.262,5.442-6.479,5.989,6.595,11.393,11.764,14.129,14.293Z" transform="translate(-14.001 -2)" fill="#21b37e"></path>
</svg>