<svg xmlns="http://www.w3.org/2000/svg" width="72.821" height="76.284" viewBox="0 0 72.821 76.284">
                                            <path
                                                    id="tooth"
                                                    d="M73.379,8.155C69.3,2.658,65.012.1,59.889.1c-3.317,0-6.536,1.064-9.643,2.09l-.1.034C46.829,3.311,43.7,4.339,40.319,4.339s-6.7-1.114-9.933-2.2C27.218,1.089,23.943,0,20.664,0,15.515,0,11.329,2.612,7.492,8.218c-6.036,8.79-2.609,18.2.156,25.8,1.231,3.378,2.394,6.567,2.394,8.976,0,12.367,2.608,33.3,12.383,33.3,6.69,0,8.748-7.773,10.569-14.65,1.933-7.24,3.607-12.364,7.564-12.364,3.413,0,4.719,3.318,6.529,11.271,1.567,6.949,3.516,15.6,11.738,15.6,11.472,0,12.364-25.385,12.364-33.165,0-2.284,1.124-5.447,2.315-8.8l.047-.134C76.289,26.3,79.7,16.654,73.379,8.155Zm-5.741,23.8-.043.124c-1.377,3.873-2.677,7.531-2.677,10.9A81.376,81.376,0,0,1,62.787,62.61c-1.583,5.953-3.4,7.257-3.963,7.257-2.518,0-3.727-2.3-5.628-10.735C51.646,52.324,49.524,43,40.557,43c-9.077,0-11.7,9.835-13.63,17.049-1.051,3.968-2.638,9.965-4.5,9.965-.289,0-2.111-1.257-3.778-7.233a77.8,77.8,0,0,1-2.335-19.792c0-3.515-1.347-7.211-2.782-11.148-2.5-6.855-5.077-13.944-.866-20.077,3.312-4.84,5.9-5.493,8-5.493,2.264,0,4.926.885,7.748,1.823,3.515,1.179,7.5,2.516,11.907,2.516,4.381,0,8.313-1.291,11.781-2.43l.108-.036c2.763-.913,5.374-1.776,7.681-1.776,2.153,0,4.842.656,8.457,5.527C72.673,17.714,70.114,24.953,67.639,31.953Z"
                                                    transform="translate(-4.142)"
                                                    fill="#21b37e"
                                            />
                                        </svg>