<svg xmlns="http://www.w3.org/2000/svg" width="76.284" height="76.284" viewBox="0 0 76.284 76.284">
    <g id="eye-scanner" transform="translate(0)">
        <path
                id="Path_28202"
                data-name="Path 28202"
                d="M433.174,422a2.235,2.235,0,0,0-2.235,2.235v6.7h-6.7a2.235,2.235,0,1,0,0,4.47h8.94a2.235,2.235,0,0,0,2.235-2.235v-8.94A2.235,2.235,0,0,0,433.174,422Z"
                transform="translate(-359.125 -359.125)"
                fill="#21b37e"
        />
        <path id="Path_28203" data-name="Path 28203" d="M11.174,430.94H4.47v-6.7a2.235,2.235,0,1,0-4.47,0v8.94a2.235,2.235,0,0,0,2.235,2.235h8.94a2.235,2.235,0,1,0,0-4.47Z" transform="translate(0 -359.125)" fill="#21b37e" />
        <path id="Path_28204" data-name="Path 28204" d="M433.174,0h-8.94a2.235,2.235,0,1,0,0,4.47h6.7v6.7a2.235,2.235,0,1,0,4.47,0V2.235A2.235,2.235,0,0,0,433.174,0Z" transform="translate(-359.125)" fill="#21b37e" />
        <path
                id="Path_28205"
                data-name="Path 28205"
                d="M2.235,13.409A2.235,2.235,0,0,0,4.47,11.174V4.47h6.7a2.235,2.235,0,1,0,0-4.47H2.235A2.235,2.235,0,0,0,0,2.235v8.94A2.235,2.235,0,0,0,2.235,13.409Z"
                transform="translate(0)"
                fill="#21b37e"
        />
        <path
                id="Path_28206"
                data-name="Path 28206"
                d="M64.793,130.4c-8.87-6.071-18.079-9.32-26.632-9.4h-.04c-8.552.076-17.762,3.325-26.632,9.4A67.275,67.275,0,0,0,.58,139.614a2.235,2.235,0,0,0,0,3.005,67.267,67.267,0,0,0,10.91,9.215c8.87,6.071,18.079,9.32,26.632,9.4h.04c8.552-.076,17.762-3.325,26.632-9.4A67.259,67.259,0,0,0,75.7,142.62a2.235,2.235,0,0,0,0-3.005,67.244,67.244,0,0,0-10.91-9.215ZM38.142,156.761a15.644,15.644,0,1,1,15.644-15.644A15.662,15.662,0,0,1,38.142,156.761ZM5.376,141.117a68.03,68.03,0,0,1,8.729-7.091,58.117,58.117,0,0,1,7.5-4.352,20.068,20.068,0,0,0,0,22.887,58.162,58.162,0,0,1-7.506-4.354,68,68,0,0,1-8.729-7.091Zm56.8,7.091a58.182,58.182,0,0,1-7.508,4.355,20.066,20.066,0,0,0,0-22.888,58.143,58.143,0,0,1,7.5,4.352,68,68,0,0,1,8.729,7.091,68.019,68.019,0,0,1-8.729,7.091Z"
                transform="translate(0 -102.975)"
                fill="#21b37e"
        />
        <path
                id="Path_28207"
                data-name="Path 28207"
                d="M200.685,191a9.685,9.685,0,1,0,9.685,9.685A9.7,9.7,0,0,0,200.685,191Zm0,14.9a5.215,5.215,0,1,1,5.215-5.215A5.221,5.221,0,0,1,200.685,205.9Z"
                transform="translate(-162.543 -162.542)"
                fill="#21b37e"
        />
    </g>
</svg>