<svg xmlns="http://www.w3.org/2000/svg" width="76.285" height="76.284" viewBox="0 0 76.285 76.284">
    <g id="hair-loss" transform="translate(0 -0.001)">
        <path
                id="Path_28208"
                data-name="Path 28208"
                d="M73.752,162.22H60.919a27.368,27.368,0,0,1,9.746-15.23,2.235,2.235,0,1,0-2.767-3.51,31.935,31.935,0,0,0-11.541,18.74H21.025a27.368,27.368,0,0,1,9.746-15.23A2.235,2.235,0,1,0,28,143.479a31.935,31.935,0,0,0-11.541,18.74H2.235A2.235,2.235,0,0,0,0,164.455v31.289a2.235,2.235,0,0,0,2.235,2.235H73.752a2.235,2.235,0,0,0,2.235-2.235V164.455A2.235,2.235,0,0,0,73.752,162.22Zm-2.235,4.47v7.591a13.869,13.869,0,0,0-4.729,1.58,9.992,9.992,0,0,1-3.094,1.115,6.6,6.6,0,0,0-.356-.654l-3.162-5.059v-2.648c0-.646.025-1.288.069-1.926Zm-15.183,12,1.606-2.57,1.606,2.57a1.894,1.894,0,1,1-3.212,0Zm-.568-12c-.039.641-.06,1.284-.06,1.926v2.648l-2.07,3.312a14.767,14.767,0,0,0-3.733-.436,18.893,18.893,0,0,0-9.089,2.7,2.235,2.235,0,0,0-.971,2.42,1.908,1.908,0,0,1-.365,1.617,1.9,1.9,0,0,1-2.966,0,1.909,1.909,0,0,1-.367-1.616,2.235,2.235,0,0,0-.972-2.417,18.933,18.933,0,0,0-9.108-2.7,14.754,14.754,0,0,0-3.716.432l-2.068-3.308v-2.648c0-.646.025-1.288.069-1.926Zm-39.326,12,1.606-2.57,1.606,2.57a1.894,1.894,0,1,1-3.212,0Zm-.568-12c-.039.641-.06,1.284-.06,1.926v2.648l-3.162,5.059a6.582,6.582,0,0,0-.357.655,9.965,9.965,0,0,1-3.1-1.116,13.853,13.853,0,0,0-4.724-1.58V166.69ZM4.47,193.508v-14.7a10.575,10.575,0,0,1,2.73,1.049,13.851,13.851,0,0,0,4.724,1.581,6.52,6.52,0,0,0,.556,1.338,6.372,6.372,0,0,0,11.867-4.054,11.758,11.758,0,0,1,1.718-.116,13.575,13.575,0,0,1,5.571,1.4,6.448,6.448,0,0,0,1.36,3.625,6.367,6.367,0,0,0,10,0A6.449,6.449,0,0,0,44.352,180a13.532,13.532,0,0,1,5.55-1.4,11.85,11.85,0,0,1,1.738.117,6.37,6.37,0,0,0,11.866,4.054,6.518,6.518,0,0,0,.556-1.339,13.876,13.876,0,0,0,4.717-1.579,10.59,10.59,0,0,1,2.737-1.05v14.7Z"
                transform="translate(0 -121.693)"
                fill="#21b37e"
        />
        <path
                id="Path_28209"
                data-name="Path 28209"
                d="M275.9,31.92a6.285,6.285,0,0,0,6.46-.056,6.285,6.285,0,0,0,3.082-5.677l-.209-5.962,1.324-2.293a27.379,27.379,0,0,1,19.9-13.483,2.235,2.235,0,0,0-.641-4.423A32.005,32.005,0,0,0,282.686,15.7l-1.324,2.293-5.268,2.8a6.364,6.364,0,0,0-.195,11.13Zm2.293-7.184,2.676-1.423.106,3.029a1.894,1.894,0,1,1-2.782-1.606Z"
                transform="translate(-232.085 0)"
                fill="#21b37e"
        />
    </g>
</svg>