<svg xmlns="http://www.w3.org/2000/svg" width="84.677" height="76.284" viewBox="0 0 84.677 76.284">
    <path
            id="heart-attack"
            d="M83.792,19.566A25.881,25.881,0,0,0,75.1,5.775,22.879,22.879,0,0,0,60.728.5,21.225,21.225,0,0,0,49.64,3.629a26.518,26.518,0,0,0-7.309,6.655C37.468,3.945,31.046.5,23.944.5A22.868,22.868,0,0,0,9.577,5.775,25.886,25.886,0,0,0,.886,19.566C-.647,25.58-.944,35.191,6.352,46.825,13.1,57.594,24.81,67.572,41.144,76.481a2.478,2.478,0,0,0,2.375,0c16.338-8.91,28.048-18.888,34.8-29.656C85.62,35.191,85.325,25.58,83.792,19.566ZM42.331,71.472C22.97,60.7,13.389,50.01,8.836,41.123H15.77a2.48,2.48,0,0,0,2.218-1.371l3.1-6.19,8.408,16.817a2.48,2.48,0,0,0,4.437,0l8.408-16.817,3.1,6.19a2.48,2.48,0,0,0,2.218,1.371H66.462a2.48,2.48,0,1,0,0-4.96H49.184l-4.628-9.256a2.481,2.481,0,0,0-4.437,0L31.71,43.723,23.3,26.906a2.481,2.481,0,0,0-4.437,0l-4.628,9.256H6.718a27.062,27.062,0,0,1-1.025-15.37C8,11.766,15.5,5.461,23.944,5.461c6.387,0,12.164,3.731,16.266,10.506a2.479,2.479,0,0,0,2.121,1.2h0a2.481,2.481,0,0,0,2.122-1.2C48.558,9.192,54.338,5.461,60.728,5.461c8.448,0,15.955,6.3,18.257,15.331C80.581,27.053,82.592,49.07,42.331,71.472Zm0,0"
            transform="translate(0 -0.5)"
            fill="#21b37e"
    />
</svg>