<svg xmlns="http://www.w3.org/2000/svg" width="76.287" height="76.284" viewBox="0 0 76.287 76.284">
    <g id="apple" transform="translate(0 -0.01)">
        <path id="Path_28210" data-name="Path 28210" d="M345,285.01h4.487v6.731H345Z" transform="translate(-293.396 -242.37)" fill="#21b37e" />
        <path id="Path_28211" data-name="Path 28211" d="M225,285.01h4.487v6.731H225Z" transform="translate(-191.345 -242.37)" fill="#21b37e" />
        <path
                id="Path_28212"
                data-name="Path 28212"
                d="M75,31.6c-1.9-6.46-5.677-10.728-10.635-12.017-6.48-1.685-12.805-.327-17.418,4.433V17.959A13.477,13.477,0,0,1,60.408,4.5V.01A17.978,17.978,0,0,0,43.651,11.527,13.428,13.428,0,0,0,29.878,7.2l-1.255.335-.335,1.255a13.521,13.521,0,0,0,1.284,10.1,21.924,21.924,0,0,0-4.531.7c-4.958,1.289-8.735,5.557-10.635,12.017a34.9,34.9,0,0,0-1.252,11.245h-5.3A7.861,7.861,0,0,0,0,50.625H0v13.7A11.98,11.98,0,0,0,11.966,76.294h43v-.065c4.117-.364,8.124-2.768,11.674-7.031a44.107,44.107,0,0,0,8.163-16.835c1.906-7.329,1.974-14.7.192-20.761ZM32.374,11.282a8.97,8.97,0,0,1,9.9,9.9,8.967,8.967,0,0,1-9.9-9.9ZM18.711,32.868c1.438-4.888,4.087-8.063,7.459-8.94,7.179-1.867,12.881.794,16.289,7.986V54.065H19.786c-2.244-6.7-3.026-14.56-1.074-21.2ZM7.853,47.334h5.726a46.325,46.325,0,0,0,1.5,6.731H7.853a3.365,3.365,0,0,1,0-6.731Zm42.63,24.473H46V62.832H41.508v8.975H37.02V65.076H32.533v6.731H28.046V62.832H23.558v8.975H19.071V65.076H14.584v6.731H11.966a7.487,7.487,0,0,1-7.479-7.479V57.793a7.8,7.8,0,0,0,3.365.759h42.63ZM70.464,51.234C67.524,62.542,61.176,70.8,54.97,71.708V54.065H46.946V31.919c4.517-9.448,12.12-9.074,16.289-7.99,3.372.877,6.021,4.052,7.459,8.94,1.556,5.29,1.474,11.812-.23,18.366Z"
                fill="#21b37e"
        />
    </g>
</svg>