<svg id="chiropractic" xmlns="http://www.w3.org/2000/svg" width="76.386" height="76.386" viewBox="0 0 76.386 76.386">
    <path
            id="Path_28223"
            data-name="Path 28223"
            d="M152.33,18.052h2.238a6.714,6.714,0,0,0,0-13.427H152.33V2.238A2.238,2.238,0,0,0,150.092,0h-17.9a2.238,2.238,0,0,0-2.238,2.238V4.625h-2.238a6.714,6.714,0,0,0,0,13.427h2.238v4.476h-2.238a6.714,6.714,0,0,0,0,13.427h2.238v4.476h-2.238a6.714,6.714,0,0,0,0,13.427h2.238v4.476h-2.238a6.714,6.714,0,0,0,0,13.427h2.238v2.387a2.238,2.238,0,0,0,2.238,2.238h17.9a2.238,2.238,0,0,0,2.238-2.238V71.762h2.238a6.714,6.714,0,0,0,0-13.427H152.33V53.858h2.238a6.714,6.714,0,0,0,0-13.427H152.33V35.955h2.238a6.714,6.714,0,0,0,0-13.427H152.33Zm-24.617-4.476a2.238,2.238,0,1,1,0-4.476h4.476a2.238,2.238,0,0,0,2.238-2.238V4.476h13.427V6.863A2.238,2.238,0,0,0,150.092,9.1h4.476a2.238,2.238,0,1,1,0,4.476h-4.476a2.238,2.238,0,0,0-2.238,2.238v2.238H134.427V15.814a2.238,2.238,0,0,0-2.238-2.238ZM154.568,62.81a2.238,2.238,0,0,1,0,4.476h-4.476a2.238,2.238,0,0,0-2.238,2.238v2.387H134.427V69.524a2.238,2.238,0,0,0-2.238-2.238h-4.476a2.238,2.238,0,0,1,0-4.476h4.476a2.238,2.238,0,0,0,2.238-2.238V58.334h13.427v2.238a2.238,2.238,0,0,0,2.238,2.238Zm0-17.9a2.238,2.238,0,0,1,0,4.476h-4.476a2.238,2.238,0,0,0-2.238,2.238v2.238H134.427V51.621a2.238,2.238,0,0,0-2.238-2.238h-4.476a2.238,2.238,0,0,1,0-4.476h4.476a2.238,2.238,0,0,0,2.238-2.238V40.431h13.427v2.238a2.238,2.238,0,0,0,2.238,2.238Zm0-17.9a2.238,2.238,0,1,1,0,4.476h-4.476a2.238,2.238,0,0,0-2.238,2.238v2.238H134.427V33.717a2.238,2.238,0,0,0-2.238-2.238h-4.476a2.238,2.238,0,1,1,0-4.476h4.476a2.238,2.238,0,0,0,2.238-2.238V22.528h13.427v2.238A2.238,2.238,0,0,0,150.092,27Z"
            transform="translate(-102.948)"
            fill="#21b37e"
    />
    <circle id="Ellipse_303" data-name="Ellipse 303" cx="2" cy="2" r="2" transform="translate(36 27)" fill="#21b37e" />
    <ellipse id="Ellipse_304" data-name="Ellipse 304" cx="2" cy="2.5" rx="2" ry="2.5" transform="translate(36 9)" fill="#21b37e" />
    <circle id="Ellipse_305" data-name="Ellipse 305" cx="2" cy="2" r="2" transform="translate(36 45)" fill="#21b37e" />
    <circle id="Ellipse_306" data-name="Ellipse 306" cx="2" cy="2" r="2" transform="translate(36 63)" fill="#21b37e" />
    <path id="Path_28224" data-name="Path 28224" d="M0,303.238a2.238,2.238,0,0,0,2.238,2.238h9.1a2.238,2.238,0,0,0,0-4.476h-9.1A2.238,2.238,0,0,0,0,303.238Z" transform="translate(0 -256.093)" fill="#21b37e" />
    <path id="Path_28225" data-name="Path 28225" d="M22.877,361.362l-6.863,4.476a2.238,2.238,0,0,0,2.445,3.749l6.863-4.476a2.238,2.238,0,0,0-2.445-3.749Z" transform="translate(-12.761 -307.14)" fill="#21b37e" />
    <path id="Path_28226" data-name="Path 28226" d="M22.877,219.587a2.238,2.238,0,0,0,2.445-3.749l-6.863-4.476a2.238,2.238,0,1,0-2.445,3.749Z" transform="translate(-12.761 -179.519)" fill="#21b37e" />
    <path id="Path_28227" data-name="Path 28227" d="M432.339,301h-9.1a2.238,2.238,0,1,0,0,4.476h9.1a2.238,2.238,0,1,0,0-4.476Z" transform="translate(-358.19 -256.093)" fill="#21b37e" />
    <path id="Path_28228" data-name="Path 28228" d="M428.877,369.586a2.238,2.238,0,1,0,2.445-3.749l-6.863-4.476a2.238,2.238,0,1,0-2.445,3.749Z" transform="translate(-358.189 -307.14)" fill="#21b37e" />
    <path id="Path_28229" data-name="Path 28229" d="M424.459,219.587l6.863-4.476a2.238,2.238,0,1,0-2.445-3.749l-6.863,4.476a2.238,2.238,0,1,0,2.445,3.749Z" transform="translate(-358.188 -179.519)" fill="#21b37e" />
</svg>