<svg xmlns="http://www.w3.org/2000/svg" width="87.333" height="77.341" viewBox="0 0 87.333 77.341">
    <g id="brainstorm" transform="translate(0.501 0.556)">
        <path
                id="Path_28213"
                data-name="Path 28213"
                d="M81.8,32.545a1.67,1.67,0,0,0,.121-.344,7.619,7.619,0,0,0-2.59-7.983c-.369-3.009-3.206-4.934-5.528-5.864A10.023,10.023,0,0,0,70.6,11.5c-3.1-2.812-7.55-3.191-9.724-3.191h-.067c-2.118-3.62-6.965-3.788-9.791-3.263A38.511,38.511,0,0,0,46.044,3.7a1.692,1.692,0,1,0-.655,3.321,35.44,35.44,0,0,1,4.95,1.369,1.685,1.685,0,0,0,.953.053c.057-.013,5.642-1.283,6.867,2.165a1.7,1.7,0,0,0,1.758,1.118c.053-.005,5.384-.474,8.419,2.289a6.4,6.4,0,0,1,2,3.8,8.669,8.669,0,0,0-7.7,4.583,1.692,1.692,0,1,0,3.021,1.527c1.561-3.089,5.439-2.779,6.143-2.694.626.205,4.337,1.529,4.187,3.8a1.692,1.692,0,0,0,.913,1.615,3.972,3.972,0,0,1,1.128,1.05,4.262,4.262,0,0,1,.67,3.4l-.114.151c-2.627.288-6.578,1.942-7.118,6.828a1.693,1.693,0,0,0,1.5,1.868,1.811,1.811,0,0,0,.188.01,1.692,1.692,0,0,0,1.68-1.507,4.3,4.3,0,0,1,4.148-3.834c7.417,5.44,2.181,18.127,1.835,18.94-1.836,3.51-4.141,5.306-7.029,5.47a24.877,24.877,0,0,0-10.145-4.693,1.692,1.692,0,1,0-.789,3.292,22.009,22.009,0,0,1,8.624,3.884,6.32,6.32,0,0,1-.187,1.369c-1.2,4.783-7.677,7.291-14.431,5.591a17.423,17.423,0,0,1-3.218-1.154,1.693,1.693,0,0,0-2.413,1.38A22.947,22.947,0,0,0,51.5,75l-4.444.739c-.19-.673-.38-1.46-.586-2.316-.993-4.113-2.428-10.046-6.645-14.915A65.448,65.448,0,0,1,49.9,56.826a1.692,1.692,0,0,0-.277-3.373,71.9,71.9,0,0,0-13.411,2.5,37.263,37.263,0,0,1-7.651.319c-7.337-1.1-9.386-5.536-8.909-9A1.693,1.693,0,0,0,17.572,45.4l-1.227.3c-2.14-.106-7.488-.935-9.9-3.738a5.5,5.5,0,0,1-1.223-4.5,1.692,1.692,0,0,0-.89-1.7,2.131,2.131,0,0,1-.9-1.2,3.819,3.819,0,0,1,.95-2.756A1.693,1.693,0,0,0,4.6,30.219c-.013-.036-1.261-3.636.164-6.625A7.316,7.316,0,0,1,9.286,19.95a1.676,1.676,0,0,0,1.138-1.457A5.2,5.2,0,0,1,12.2,15.159c1.08-.8,2.638-1.011,4.631-.613a1.693,1.693,0,0,0,2-1.393c.006-.037.764-3.559,7.368-3.684,1,1.368,3.212,4.962,1.572,8.182A1.693,1.693,0,1,0,30.8,19.188a8.726,8.726,0,0,0,.948-3.559,5.594,5.594,0,0,1,3.472-.468A2.851,2.851,0,0,1,36.952,16.8,1.693,1.693,0,0,0,40,15.314a6.213,6.213,0,0,0-3.816-3.4,8.176,8.176,0,0,0-4.874.258,15.189,15.189,0,0,0-1.748-3.79,22.116,22.116,0,0,1,3.2-1.1,1.693,1.693,0,1,0-.86-3.274,23.187,23.187,0,0,0-5.321,2.071c-6.855,0-9.506,3-10.5,4.935a8.224,8.224,0,0,0-5.93,1.46,8.246,8.246,0,0,0-2.9,4.631,10.222,10.222,0,0,0-5.534,5.031,12.7,12.7,0,0,0-.547,8.381,6.291,6.291,0,0,0-1.031,4.8,5.272,5.272,0,0,0,1.653,2.737,8.637,8.637,0,0,0,2.094,6.109C7.527,48.409,14.794,49,16.229,49.078c.369,4.72,3.963,9.378,11.879,10.55l.076.01c.07.007.947.093,2.428.093A45,45,0,0,0,36,59.393c4.67,4.414,6.118,10.4,7.184,14.823a30.5,30.5,0,0,0,1.161,4.069,1.692,1.692,0,0,0,1.566,1.052,1.668,1.668,0,0,0,.279-.023l7.659-1.274A1.692,1.692,0,0,0,55.192,75.9a17.758,17.758,0,0,1-.678-4.583c.5.166,1,.313,1.512.441a18.735,18.735,0,0,0,11.642-.626,11.078,11.078,0,0,0,6.9-7.421,9.728,9.728,0,0,0,.241-1.384c2.889-.4,6.367-2.121,9.034-7.258.016-.03.03-.061.044-.092a32.474,32.474,0,0,0,2.3-8.856C86.812,40.22,85.3,35.567,81.8,32.545Zm0,0"
                transform="translate(0 -3.052)"
                fill="#21b37e"
                stroke="#21b37e"
                stroke-width="1"
        />
        <path
                id="Path_28214"
                data-name="Path 28214"
                d="M230.232,135.576a13.094,13.094,0,0,0,2.076,4.72,11.433,11.433,0,0,0,1.43,1.663c-.3,1.739-2.964,2.69-3.026,2.712a1.693,1.693,0,0,0,1.087,3.206,8.5,8.5,0,0,0,4.844-3.953,11.544,11.544,0,0,0,4.808.979c.121,0,.244,0,.368,0a1.693,1.693,0,0,0-.043-3.385h-.043c-6.792.171-8.115-6.257-8.173-6.552a1.692,1.692,0,0,0-3.329.614Zm0,0"
                transform="translate(-190.859 -111.057)"
                fill="#21b37e"
                stroke="#21b37e"
                stroke-width="1"
        />
        <path
                id="Path_28215"
                data-name="Path 28215"
                d="M325.358,155.984c2.939-5.135,1.778-9.106.288-11.533a12.652,12.652,0,0,0-3.939-3.969,1.693,1.693,0,0,0-1.72,2.916,9.3,9.3,0,0,1,2.833,2.921c1.41,2.371,1.275,5.057-.4,7.984a1.693,1.693,0,1,0,2.939,1.681Zm0,0"
                transform="translate(-265.349 -116.603)"
                fill="#21b37e"
                stroke="#21b37e"
                stroke-width="1"
        />
        <path
                id="Path_28216"
                data-name="Path 28216"
                d="M399.474,233a1.693,1.693,0,0,0-1.967-2.755c-1.65,1.179-3.152,1.622-4.463,1.317a5.5,5.5,0,0,1-3.124-2.535,1.692,1.692,0,0,0-3,1.574,9.185,9.185,0,0,0,4.462,3.986c-.524,2.071-.858,5.725,2.2,8.283a1.693,1.693,0,1,0,2.171-2.6c-1.868-1.562-1.343-4.126-.975-5.286A10.3,10.3,0,0,0,399.474,233Zm0,0"
                transform="translate(-321.525 -189.659)"
                fill="#21b37e"
                stroke="#21b37e"
                stroke-width="1"
        />
        <path
                id="Path_28217"
                data-name="Path 28217"
                d="M101.446,185.267a1.693,1.693,0,0,0-3.358.426c.294,2.316-1.523,4-2.6,4.784a10.55,10.55,0,0,0-5.893-.8,1.693,1.693,0,0,0,.582,3.335c.029-.005,2.886-.463,4.6,1.019.976.846,1.448,2.262,1.4,4.207a1.693,1.693,0,0,0,1.653,1.731h.04a1.693,1.693,0,0,0,1.691-1.653,9.169,9.169,0,0,0-1.442-5.593A8.318,8.318,0,0,0,101.446,185.267Zm0,0"
                transform="translate(-73.329 -152.8)"
                fill="#21b37e"
                stroke="#21b37e"
                stroke-width="1"
        />
        <path
                id="Path_28218"
                data-name="Path 28218"
                d="M51.79,111.155a3.787,3.787,0,0,1-.815,1.192,5.45,5.45,0,0,1-2.114,1.3,1.692,1.692,0,0,0,.893,3.265,8.823,8.823,0,0,0,3.875-2.448,6.453,6.453,0,0,0,3.913,1.277,7.761,7.761,0,0,0,1.242-.1A9.85,9.85,0,0,0,62.3,114.32a1.693,1.693,0,1,0-1.841-2.841,6.689,6.689,0,0,1-2.208.814,3.207,3.207,0,0,1-2.976-.869,9.339,9.339,0,0,0-.144-4.857,1.692,1.692,0,1,0-3.267.886,5.542,5.542,0,0,1-.036,3.626Zm0,0"
                transform="translate(-39.591 -87.561)"
                fill="#21b37e"
                stroke="#21b37e"
                stroke-width="1"
        />
        <path
                id="Path_28219"
                data-name="Path 28219"
                d="M270.179,49.4a8.827,8.827,0,0,0-6.283-.782,1.693,1.693,0,0,0,.9,3.264,5.363,5.363,0,0,1,3.657.429,4.592,4.592,0,0,1,1.965,3.078,1.693,1.693,0,0,0,1.647,1.305,1.714,1.714,0,0,0,.389-.045,1.692,1.692,0,0,0,1.26-2.035A7.821,7.821,0,0,0,270.179,49.4Zm0,0"
                transform="translate(-218.368 -40.203)"
                fill="#21b37e"
                stroke="#21b37e"
                stroke-width="1"
        />
        <path
                id="Path_28220"
                data-name="Path 28220"
                d="M217.589,239.665a6.123,6.123,0,0,1-5.179,3.3,8.672,8.672,0,0,1-3.3-.5,1.693,1.693,0,0,0-1.288,3.13,11.741,11.741,0,0,0,4.19.765q.209,0,.426-.009a9.424,9.424,0,0,0,8.081-4.983,1.693,1.693,0,0,0-2.926-1.7Zm0,0"
                transform="translate(-171.91 -198.556)"
                fill="#21b37e"
                stroke="#21b37e"
                stroke-width="1"
        />
        <path
                id="Path_28221"
                data-name="Path 28221"
                d="M328.328,298.992a1.692,1.692,0,1,0-.252,2.176A1.7,1.7,0,0,0,328.328,298.992Zm0,0"
                transform="translate(-270.393 -247.956)"
                fill="#21b37e"
                stroke="#21b37e"
                stroke-width="1"
        />
        <path id="Path_28222" data-name="Path 28222" d="M221.569,2.337a1.691,1.691,0,0,0,3.165-.1,1.692,1.692,0,1,0-3.165.1Zm0,0" transform="translate(-184.107 0)" fill="#21b37e" stroke="#21b37e" stroke-width="1" />
    </g>
</svg>