<svg xmlns="http://www.w3.org/2000/svg" width="76.284" height="76.284" viewBox="0 0 76.284 76.284">
    <path
            id="urology"
            d="M67.478,4.405a10.441,10.441,0,0,0-15.23,13.154,11.112,11.112,0,0,0-2.589,5.274,11.292,11.292,0,0,0-4.812,2.121V0h-4.47V45.069c-.719-.047-1.462-.073-2.235-.073s-1.516.026-2.235.073V0h-4.47V24.954a11.294,11.294,0,0,0-4.812-2.121,11.111,11.111,0,0,0-2.589-5.274A10.441,10.441,0,0,0,8.807,4.405,19.738,19.738,0,0,0,0,20.861V28.9A19.738,19.738,0,0,0,8.807,45.359,10.441,10.441,0,0,0,24.036,32.2a11.127,11.127,0,0,0,2.488-4.8,6.837,6.837,0,0,1,4.913,6.418V45.745c-5.425,1.388-8.94,4.912-8.94,10.426,0,5.554,3.632,9.006,8.94,10.378v9.737H44.847V66.548c5.315-1.373,8.94-4.829,8.94-10.378,0-5.506-3.494-9.032-8.94-10.426V33.821A6.837,6.837,0,0,1,49.759,27.4a11.128,11.128,0,0,0,2.488,4.8A10.441,10.441,0,0,0,67.477,45.359,19.738,19.738,0,0,0,76.284,28.9V20.861A19.739,19.739,0,0,0,67.478,4.405ZM18.516,31.154,19.94,34a5.971,5.971,0,0,1-8.653,7.639A15.277,15.277,0,0,1,4.47,28.9V20.861A15.277,15.277,0,0,1,11.287,8.124a5.972,5.972,0,0,1,8.653,7.639L18.516,18.61c.54.606,3.833,2.29,3.833,6.272S19.073,30.529,18.516,31.154Zm30.8,25.017c0,1.285,0,5.195-7.068,6.359l-1.872.308v8.977h-4.47V62.838l-1.872-.308c-7.068-1.164-7.068-5.074-7.068-6.359,0-4.449,3.76-6.7,11.174-6.7S49.317,51.721,49.317,56.17ZM71.815,28.9A15.277,15.277,0,0,1,65,41.64,5.972,5.972,0,0,1,56.345,34l1.423-2.847c-.54-.606-3.833-2.29-3.833-6.272s3.275-5.647,3.833-6.272l-1.423-2.847A5.971,5.971,0,0,1,65,8.124a15.277,15.277,0,0,1,6.817,12.737Z"
            fill="#21b37e"
    />
</svg>