<svg xmlns="http://www.w3.org/2000/svg" width="1594.33" height="376.534" viewBox="0 0 1594.33 376.534">
  <g id="Group_7268" data-name="Group 7268" transform="translate(-79.679 -81.35)" opacity="0.7">
    <g id="Group_7254" data-name="Group 7254" transform="translate(1419.47 185.79)">
      <path id="Path_28231" data-name="Path 28231" d="M429.268,129.659h-4.676v-4.68a1.14,1.14,0,0,0-1.134-1.134h-3.443a1.136,1.136,0,0,0-1.134,1.134v4.68H414.2a1.136,1.136,0,0,0-1.134,1.134v3.442a1.134,1.134,0,0,0,1.134,1.134h4.679v4.68a1.133,1.133,0,0,0,1.134,1.131h3.443a1.137,1.137,0,0,0,1.134-1.131v-4.68h4.676a1.134,1.134,0,0,0,1.134-1.134v-3.442A1.136,1.136,0,0,0,429.268,129.659Z" transform="translate(-394.025 -95.535)" fill="#21b37e"/>
      <path id="Path_28232" data-name="Path 28232" d="M445.022,127.36h-3.758c0-4.364-1.615-8.822-13.611-8.822S414.04,123,414.04,127.36h-3.758c0-12.577,13.076-12.577,17.371-12.577S445.022,114.783,445.022,127.36Z" transform="translate(-399.942 -114.783)" fill="#21b37e"/>
      <path id="Path_28233" data-name="Path 28233" d="M451.121,119.354H418.243a11.269,11.269,0,0,0-11.271,11.271v22.857a11.273,11.273,0,0,0,11.271,11.277h32.878a11.273,11.273,0,0,0,11.274-11.277V130.625A11.27,11.27,0,0,0,451.121,119.354Zm-16.438,36.139a13.44,13.44,0,1,1,13.439-13.439A13.442,13.442,0,0,1,434.683,155.494Z" transform="translate(-406.972 -105.075)" fill="#21b37e"/>
    </g>
    <g id="Group_7256" data-name="Group 7256" transform="translate(1249.672 345.204)">
      <path id="Path_28234" data-name="Path 28234" d="M418.44,178.452a16.083,16.083,0,0,1-22.357,0c-11.355,1.962-19.4,7.663-19.4,20.6h61.152C437.836,186.115,429.792,180.414,418.44,178.452Z" transform="translate(-376.684 -138.976)" fill="#21b37e"/>
      <path id="Path_28235" data-name="Path 28235" d="M381.742,171.976a16.093,16.093,0,1,0,31.766,3.649,16.016,16.016,0,0,0-.425-3.649Z" transform="translate(-366.838 -152.73)" fill="#21b37e"/>
      <g id="Group_7255" data-name="Group 7255" transform="translate(13.151)">
        <path id="Path_28236" data-name="Path 28236" d="M407.056,165.815H389.578a8.706,8.706,0,0,0-8.684,8.684l1.765,8.737h31.319l1.765-8.737A8.708,8.708,0,0,0,407.056,165.815Zm-8.734,15.55a6.84,6.84,0,1,1,6.838-6.841A6.845,6.845,0,0,1,398.322,181.365Z" transform="translate(-380.894 -165.815)" fill="#21b37e"/>
        <path id="Path_28237" data-name="Path 28237" d="M394.389,170.394h-2.755v-2.755a.672.672,0,0,0-.668-.672h-2.034a.669.669,0,0,0-.665.672v2.755H385.5a.671.671,0,0,0-.668.669V173.1a.671.671,0,0,0,.668.669h2.761v2.755a.667.667,0,0,0,.665.672h2.034a.67.67,0,0,0,.668-.672v-2.755h2.755a.674.674,0,0,0,.672-.669v-2.034A.674.674,0,0,0,394.389,170.394Z" transform="translate(-372.522 -163.368)" fill="#21b37e"/>
      </g>
    </g>
    <g id="Group_7260" data-name="Group 7260" transform="translate(191.868 185.889)">
      <g id="Group_7257" data-name="Group 7257" transform="translate(31.716 43.34)">
        <path id="Path_28238" data-name="Path 28238" d="M129.929,128.689a4.46,4.46,0,0,0,0,8.9Z" transform="translate(-125.746 -128.689)" fill="#21b37e"/>
        <path id="Path_28239" data-name="Path 28239" d="M127.261,128.69v8.9a4.457,4.457,0,0,0,0-8.9Z" transform="translate(-122.528 -128.687)" fill="#21b37e"/>
      </g>
      <g id="Group_7258" data-name="Group 7258" transform="translate(41.141 35.825)">
        <path id="Path_28240" data-name="Path 28240" d="M136.941,128.279a4.46,4.46,0,0,0-7.71,4.451Z" transform="translate(-128.763 -126.283)" fill="#21b37e"/>
        <path id="Path_28241" data-name="Path 28241" d="M136.711,127.075,129,131.523a4.459,4.459,0,0,0,7.71-4.448Z" transform="translate(-128.258 -124.602)" fill="#21b37e"/>
      </g>
      <g id="Group_7259" data-name="Group 7259" transform="translate(36.124 26.199)">
        <path id="Path_28242" data-name="Path 28242" d="M127.625,123.993a4.457,4.457,0,0,0,7.706,4.448Z" transform="translate(-127.157 -121.521)" fill="#21b37e"/>
        <path id="Path_28243" data-name="Path 28243" d="M127.394,125.2l7.71,4.451a4.46,4.46,0,0,0-7.71-4.451Z" transform="translate(-126.654 -123.202)" fill="#21b37e"/>
      </g>
      <path id="Path_28244" data-name="Path 28244" d="M139.753,114.815H121.381A5.8,5.8,0,0,0,115.6,120.6l0,48.313a5.808,5.808,0,0,0,5.788,5.788h18.371a5.8,5.8,0,0,0,5.785-5.788l0-48.313A5.81,5.81,0,0,0,139.753,114.815ZM124.327,170.45a4.592,4.592,0,1,1,4.6-4.592A4.6,4.6,0,0,1,124.327,170.45Zm0-10.549a4.592,4.592,0,1,1,4.6-4.592A4.593,4.593,0,0,1,124.327,159.9Zm0-10.549a4.592,4.592,0,1,1,4.6-4.592A4.593,4.593,0,0,1,124.327,149.352Zm0-10.546a4.594,4.594,0,1,1,4.592-4.592A4.6,4.6,0,0,1,124.33,138.806Zm0-10.549a4.594,4.594,0,1,1,4.6-4.592A4.6,4.6,0,0,1,124.327,128.257Zm12.48,42.193a4.592,4.592,0,1,1,4.589-4.592A4.592,4.592,0,0,1,136.807,170.45Zm0-10.549a4.592,4.592,0,1,1,4.592-4.592A4.593,4.593,0,0,1,136.8,159.9Zm0-10.549a4.59,4.59,0,1,1,4.592-4.592A4.589,4.589,0,0,1,136.8,149.352Zm0-10.546a4.594,4.594,0,1,1,4.6-4.6A4.6,4.6,0,0,1,136.8,138.806Zm0-10.549a4.592,4.592,0,1,1,4.592-4.592A4.593,4.593,0,0,1,136.8,128.257Z" transform="translate(-115.593 -114.815)" fill="#21b37e"/>
    </g>
    <g id="Group_7263" data-name="Group 7263" transform="translate(79.679 357.012)">
      <g id="Group_7261" data-name="Group 7261">
        <path id="Path_28245" data-name="Path 28245" d="M117.986,187.607a19.19,19.19,0,0,0-38.307,0Z" transform="translate(-79.679 -169.595)" fill="#21b37e"/>
        <path id="Path_28246" data-name="Path 28246" d="M117.986,176.117H79.679a19.19,19.19,0,0,0,38.307,0Z" transform="translate(-79.679 -155.743)" fill="#21b37e"/>
      </g>
      <g id="Group_7262" data-name="Group 7262" transform="translate(41.031 0.037)">
        <path id="Path_28247" data-name="Path 28247" d="M110.832,169.607a19.191,19.191,0,0,0-.006,38.311Z" transform="translate(-92.814 -169.607)" fill="#21b37e"/>
        <path id="Path_28248" data-name="Path 28248" d="M99.336,169.608v38.307a19.19,19.19,0,0,0,0-38.307Z" transform="translate(-78.962 -169.605)" fill="#21b37e"/>
      </g>
    </g>
    <g id="Group_7264" data-name="Group 7264" transform="translate(915.935 187.102)">
      <path id="Path_28249" data-name="Path 28249" d="M313.313,145.029c7.981-7.219,15.81-15.016,15.81-29.826H326c0,13.617-7.157,20.63-15.013,27.727-7.859-7.1-15.016-14.11-15.016-27.727h-3.121c0,14.81,7.825,22.607,15.807,29.826-7.981,7.216-15.807,15.013-15.807,29.823h3.121c0-13.617,7.157-20.63,15.016-27.727,7.856,7.1,15.013,14.11,15.013,27.727h3.124C329.123,160.042,321.294,152.245,313.313,145.029Z" transform="translate(-292.849 -115.203)" fill="#21b37e"/>
      <path id="Path_28250" data-name="Path 28250" d="M315.869,130.718a1.049,1.049,0,0,1-1.1.975H296.48a.982.982,0,1,1,0-1.949h18.287A1.049,1.049,0,0,1,315.869,130.718Z" transform="translate(-287.486 -84.323)" fill="#21b37e"/>
      <path id="Path_28251" data-name="Path 28251" d="M320.391,133.1a1.05,1.05,0,0,1-1.106.972H295.616a.981.981,0,1,1,0-1.946h23.669A1.05,1.05,0,0,1,320.391,133.1Z" transform="translate(-289.315 -79.253)" fill="#21b37e"/>
      <path id="Path_28252" data-name="Path 28252" d="M306.783,128.331a1.045,1.045,0,0,1-1.1.975h-7.469a.982.982,0,1,1,0-1.949h7.469A1.047,1.047,0,0,1,306.783,128.331Z" transform="translate(-283.81 -89.392)" fill="#21b37e"/>
      <path id="Rectangle_1649" data-name="Rectangle 1649" d="M.353,0H25.439a.353.353,0,0,1,.353.353V1.916a.354.354,0,0,1-.354.354H.354A.354.354,0,0,1,0,1.916V.353A.353.353,0,0,1,.353,0Z" transform="translate(5.24 4.663)" fill="#21b37e"/>
      <path id="Path_28253" data-name="Path 28253" d="M315.882,120.109a1.045,1.045,0,0,1-1.1.975h-18.3a.983.983,0,1,1,0-1.949h18.3A1.045,1.045,0,0,1,315.882,120.109Z" transform="translate(-287.493 -106.854)" fill="#21b37e"/>
      <path id="Path_28254" data-name="Path 28254" d="M306.791,122.5a1.047,1.047,0,0,1-1.1.975H298.21a.984.984,0,1,1,0-1.952h7.478A1.048,1.048,0,0,1,306.791,122.5Z" transform="translate(-283.812 -101.787)" fill="#21b37e"/>
    </g>
    <path id="Path_28255" data-name="Path 28255" d="M269.036,100.924V81.35H249.461v19.574H229.887V120.5h19.574v19.574h19.574V120.5H288.61V100.924Z" transform="translate(441.264 0)" fill="#21b37e"/>
    <g id="Group_7265" data-name="Group 7265" transform="translate(667.891 294.981)">
      <path id="Path_28256" data-name="Path 28256" d="M249.065,176.773a1.182,1.182,0,0,1,.956.5l2.952,4.189,1.037-3.82,3.658-13.7a1.174,1.174,0,0,1,2.265,0l6.188,23.166,2.53-9.465,1.668-6.226a1.184,1.184,0,0,1,.928-.853,1.168,1.168,0,0,1,1.159.481l4.061,5.729h16a19.124,19.124,0,0,0-30.932-21.436A19.124,19.124,0,0,0,230.6,176.773Z" transform="translate(-228.892 -149.737)" fill="#21b37e"/>
      <path id="Path_28257" data-name="Path 28257" d="M273.834,166.165a1.165,1.165,0,0,1-.956-.5l-2.968-4.186-1.021,3.814-3.661,13.7a1.171,1.171,0,0,1-2.265,0l-6.191-23.16-2.527,9.462-1.69,6.229a1.17,1.17,0,0,1-2.087.372l-4.039-5.732H229.847a18.983,18.983,0,0,0,2.618,3.268l27.04,27.043,27.043-27.043a19.11,19.11,0,0,0,2.615-3.268Z" transform="translate(-226.865 -136.788)" fill="#21b37e"/>
    </g>
    <path id="Path_28258" data-name="Path 28258" d="M542.423,167.554a4.8,4.8,0,0,0-4.536,3.23H522.881l-5.47-7.725a1.576,1.576,0,0,0-2.811.5l-2.252,8.394-3.408,12.755L500.6,153.49a1.578,1.578,0,0,0-3.049,0l-4.929,18.459-1.4,5.151-3.977-5.648a1.589,1.589,0,0,0-1.293-.668H470.122a4.808,4.808,0,1,0,0,3.155h15.007l5.442,7.725a1.581,1.581,0,0,0,2.818-.5l2.274-8.4,3.408-12.751,8.344,31.216a1.581,1.581,0,0,0,3.052,0l4.933-18.465,1.378-5.139,4,5.645a1.58,1.58,0,0,0,1.29.665h15.825a4.806,4.806,0,1,0,4.536-6.385Z" transform="translate(1126.775 150.726)" fill="#21b37e"/>
    <g id="Group_7266" data-name="Group 7266" transform="translate(1015.715 352.552)">
      <path id="Path_28259" data-name="Path 28259" d="M382.408,209.845V168.167H317.126v41.678h29.539v9.093h-8.894a1.1,1.1,0,0,0-1.1,1.1v1.681a1.1,1.1,0,0,0,1.1,1.1h23.994a1.1,1.1,0,0,0,1.1-1.1v-1.681a1.105,1.105,0,0,0-1.1-1.1h-8.893v-9.093ZM319.456,170.5H380.08v37.02H319.456Z" transform="translate(-317.126 -168.167)" fill="#21b37e"/>
      <path id="Path_28260" data-name="Path 28260" d="M370.722,180.447a3.063,3.063,0,0,0-2.886,2.059h-9.546l-3.48-4.917a1.006,1.006,0,0,0-1.793.319l-1.431,5.342-2.171,8.113-5.3-19.861a1.006,1.006,0,0,0-1.943,0l-3.139,11.746-.887,3.277-2.53-3.6a1.008,1.008,0,0,0-.825-.422H324.721a3.055,3.055,0,1,0,0,2.005h9.543l3.467,4.914a1,1,0,0,0,1.787-.315l1.453-5.342,2.165-8.116,5.307,19.864a1.008,1.008,0,0,0,1.946,0l3.136-11.749.878-3.274,2.543,3.592a1,1,0,0,0,.822.425h10.068a3.059,3.059,0,1,0,2.886-4.064Z" transform="translate(-313.635 -162.666)" fill="#21b37e"/>
    </g>
    <g id="Group_7267" data-name="Group 7267" transform="translate(446.22 398.2)">
      <path id="Path_28261" data-name="Path 28261" d="M182.084,197.6a2.986,2.986,0,1,0-2.983-2.986A2.986,2.986,0,0,0,182.084,197.6Z" transform="translate(-159.871 -163.98)" fill="#21b37e"/>
      <path id="Path_28262" data-name="Path 28262" d="M182.214,193.779a2.291,2.291,0,1,0-2.293-2.29A2.292,2.292,0,0,0,182.214,193.779Z" transform="translate(-158.129 -169.154)" fill="#21b37e"/>
      <path id="Path_28263" data-name="Path 28263" d="M215.9,209.023a23.571,23.571,0,0,0-10.327-8.3v-15.4a1.268,1.268,0,0,0,0-2.536H187.53a1.268,1.268,0,1,0,0,2.536v15.4a23.611,23.611,0,0,0-3.864,41.6l.222.144h25.322l.219-.144a23.6,23.6,0,0,0,6.469-33.3Zm-7.219,31.663H184.422a21.831,21.831,0,0,1,4.311-38.535l.572-.216V185.317H203.8v16.619l.565.216a21.832,21.832,0,0,1,4.317,38.535Z" transform="translate(-172.945 -182.78)" fill="#21b37e"/>
      <path id="Path_28264" data-name="Path 28264" d="M192.8,201.441a3.811,3.811,0,0,0,.034-.8,4.068,4.068,0,0,0-4.333-3.789,4.215,4.215,0,0,0-.806.134,2.976,2.976,0,1,0-2.615,1.574,2.676,2.676,0,0,0,.425-.044,4.036,4.036,0,0,0-.79,2.671,1.756,1.756,0,0,0,.041.256H174.035a20.177,20.177,0,0,0,8.978,16.8h22.442a20.17,20.17,0,0,0,8.978-16.8Zm-.778,14.5A4.063,4.063,0,0,1,188.055,211a2.8,2.8,0,0,1-.565.062,3.257,3.257,0,1,1,3.258-3.258c0,.078-.019.156-.025.231a4.018,4.018,0,0,1,1.3-.231,4.07,4.07,0,1,1,0,8.141Zm8.956-4.07a3.255,3.255,0,1,1,3.255-3.258A3.258,3.258,0,0,1,200.978,211.871Z" transform="translate(-170.63 -161.95)" fill="#21b37e"/>
    </g>
    <path id="Path_28265" data-name="Path 28265" d="M177.88,151.653a4.644,4.644,0,0,0,2.265-3.386l10.98.943a6.906,6.906,0,0,0,.915,3.8,6.834,6.834,0,0,0,5.126,3.367l.494.05a6.885,6.885,0,0,0,3.789-.922,7.016,7.016,0,0,0,2.031-1.787l18.609,13.117a4.966,4.966,0,1,0,.29-.415l-18.615-13.108a6.917,6.917,0,0,0,.188-7.213,6.676,6.676,0,0,0-1.365-1.662l16-19.24a5.8,5.8,0,0,0,6.46.409,5.69,5.69,0,0,0,2.293-2.427l.209-.453a5.906,5.906,0,0,0-.372-5.1,5.844,5.844,0,0,0-5.845-2.855l-.494.094a5.759,5.759,0,0,0-1.653.643,5.833,5.833,0,0,0-2.112,7.981,5.722,5.722,0,0,0,1.121,1.393l-16,19.233a6.893,6.893,0,0,0-5.882-1.228l-.481.141a7.489,7.489,0,0,0-1.3.572,6.9,6.9,0,0,0-3.364,5.117l-10.977-.959a4.586,4.586,0,0,0-.625-2.5,4.688,4.688,0,1,0-1.69,6.4Z" transform="translate(267.873 70.869)" fill="#21b37e"/>
  </g>
</svg>
