<svg xmlns="http://www.w3.org/2000/svg" xmlns:xlink="http://www.w3.org/1999/xlink" width="780.016" height="523.698" viewBox="0 0 780.016 523.698">
  <defs>
    <clipPath id="clip-path">
      <circle id="SVGID" cx="195.523" cy="195.523" r="195.523" transform="matrix(0.15, -0.989, 0.989, 0.15, 0, 386.612)" fill="none"/>
    </clipPath>
  </defs>
  <g id="Group_7219" data-name="Group 7219" transform="translate(63.62 -21.183)">
    <path id="Path_28099" data-name="Path 28099" d="M811.332,304.328a103.267,103.267,0,0,0-13.912-56.911c-13.641-23.61-36.242-32.16-53.928-50.523-15.881-16.485-8.955-38.2-12.608-59.236-10.8-62.171-89.953-98.37-140-115.706C525.52-.686,462.437,11.4,398.274,31.106c-46.731,14.353-80.026-10.935-125.947-18.024C236.254,7.514,198.846,14.47,164.935,27.8,131.356,40.985,109.165,57.9,86.388,85.7c-41.61,50.788-66.47,115.411-49.671,183.758C45.165,303.821,75.888,323.385,88,356.131c14.86,40.173,8.979,89.337,38.724,122.735,41.477,46.586,103.624,42.009,156.314,31.43,29.256-5.875,54.991,6.177,83.782,8.5,49.551,4,99.312,15,149.171,14.589,57.751-.477,102.833-28.127,155.976-45.167,18.894-6.056,40.825-11.871,56.537-25.21,11.57-9.824,15.513-24.045,24.2-36.309C779.269,389.167,809.3,354.006,811.332,304.328Z" transform="translate(-95.031 11.483)" fill="#2b2d42" opacity="0.058"/>
    <g id="Group_7218" data-name="Group 7218" transform="translate(-8.817 78.022)">
      <path id="Path_28100" data-name="Path 28100" d="M223.551,48s-37.684,23.842-66.14,33.07S120.5,95.684,117.42,96.45s19.993,30.763,19.993,30.763,65.374-12.3,67.681-13.842S223.551,48,223.551,48Z" transform="translate(328.266 95.32)" fill="#c7e1f6"/>
      <path id="Path_28101" data-name="Path 28101" d="M184.01,50.99s-35.541,23.743-39.062,34.262c-5.866,17.522-10.929,98.018-4.773,107.246s11.535,13.077,11.535,13.077l-3.078,6.921s-12.306,16.915-13.842,23.071S126.333,340.926,126.333,344,234,360.919,285.526,344c0,0-10.77-86.138-15.384-98.439s-33.07-40.762-33.07-40.762,9.234-6.921,10-10.764,6.156-111.516,3.849-124.587S217.85,45.61,214.773,45.61,184.01,50.99,184.01,50.99Z" transform="translate(369.343 84.64)" fill="#c7e1f6"/>
      <path id="Path_28102" data-name="Path 28102" d="M85.6,71.2S45.611,93.507,37.153,111.964,61.76,334.99,61.76,334.99s65.506,21.693,152.272,0c3.078-.771,13.077-288.395,7.692-288.395s-69.983,4.614-69.983,4.614Z" transform="translate(-35.212 89.04)" fill="#c7e1f6"/>
      <path id="Path_28103" data-name="Path 28103" d="M139.134,86.444s26.149,0,46.912-5.385l6.15,40.762s-14.1,26.914-45.371,3.843Z" transform="translate(426.525 242.99)" fill="#fff"/>
      <path id="Path_28104" data-name="Path 28104" d="M136.3,33.807s-7.692,62.548-7.178,84.082S136.3,151.73,144.5,152.243s39.991-21.535,47.678-17.434,23.809,6.621,28.713,10.371c7.3,5.587,17.658,38.531,18.172,40.581s11.563-39.674,10.026-49.411-18.97-35.382-21.021-47.175-4.1-51.269-12.815-58.956S136.3,33.807,136.3,33.807Z" transform="translate(381.679 3.898)" fill="#001c31"/>
      <path id="Path_28105" data-name="Path 28105" d="M138.736,49.859s7.178,31.277,4.1,38.963-12.815,26.663-6.15,25.635,37.941-30.249,37.941-30.249S162.834,58.059,159.242,44.73,138.736,49.859,138.736,49.859Z" transform="translate(405.389 59.114)" fill="#f7a98f"/>
      <path id="Path_28106" data-name="Path 28106" d="M134.24,29.9s-7.178,34.863-2.564,51.269,9.228,26.149,15.893,28.2,27.69-9.737,30.763-12.3S168.081,34,168.081,34Z" transform="translate(386.3 14.468)" fill="#f7a98f"/>
      <path id="Path_28107" data-name="Path 28107" d="M140.781,39.28a5.256,5.256,0,1,1-5.538-4.959A5.253,5.253,0,0,1,140.781,39.28Z" transform="translate(386.959 34.174)" fill="#001c31"/>
      <path id="Path_28108" data-name="Path 28108" d="M146.546,39.481a5.256,5.256,0,1,1-5.538-4.959A5.254,5.254,0,0,1,146.546,39.481Z" transform="translate(412.711 35.076)" fill="#001c31"/>
      <path id="Path_28109" data-name="Path 28109" d="M150.266,40.641l-17.948-.629s-.853,11.317,10.354,10.114C148.14,49.536,150.266,40.641,150.266,40.641Z" transform="translate(396.013 59.634)" fill="#fff"/>
      <g id="Group_7157" data-name="Group 7157" transform="translate(528.382 86.978)">
        <path id="Path_28110" data-name="Path 28110" d="M138.9,42.146a5.511,5.511,0,0,1-4.5-3.723c-.421-1.279-2.449-.733-2.023.558a7.692,7.692,0,0,0,6.522,5.265c1.339.159,1.328-1.946,0-2.1Z" transform="translate(-132.315 -37.695)" fill="#7c4415"/>
      </g>
      <g id="Group_7158" data-name="Group 7158" transform="translate(519.92 288.309)">
        <path id="Path_28111" data-name="Path 28111" d="M130.94,76.984c2.75,4.439,8.714,7.02,13.383,8.682,9.534,3.384,18.823,3.461,28.707,2.061,15.089-2.143,30.079-6.194,44.534-11,1.35-.448.771-2.6-.6-2.143a278.665,278.665,0,0,1-39.6,10.212c-9.332,1.635-18.473,2.5-27.75.142-5.429-1.378-13.531-3.882-16.756-9.075-.749-1.214-2.673-.1-1.919,1.121Z" transform="translate(-130.768 -74.522)" fill="#016fc2"/>
      </g>
      <g id="Group_7159" data-name="Group 7159" transform="translate(524.36 250.703)">
        <path id="Path_28112" data-name="Path 28112" d="M148.519,69.038c1.252,9.092,2.247,18.238,2.9,27.39.394,5.533.875,11.246.284,16.778-.372,3.466-1.5,3.925-3.942,5.992-7.643,6.467-11.081,16.827-13.017,26.307-4.133,20.25-3.04,41.8-3.029,62.362.011,14.3.153,28.614.569,42.91.044,1.432,2.269,1.438,2.225,0-.344-11.82-.487-23.656-.547-35.481q-.09-16.8.2-33.606c.213-11.153.312-22.387,2.3-33.4,1.81-10,5.057-21.36,13.394-27.953,2.16-1.711,3.324-2.438,3.838-5.347.886-4.942.448-10.24.159-15.215-.6-10.475-1.766-20.939-3.2-31.331-.191-1.411-2.334-.809-2.143.59Z" transform="translate(-131.58 -67.643)" fill="#016fc2"/>
      </g>
      <g id="Group_7160" data-name="Group 7160" transform="translate(102.556 162.793)">
        <path id="Path_28113" data-name="Path 28113" d="M54.507,52.9c3.734,9.425,7.107,19.009,10.234,28.653,4.576,14.1,10.3,29.932,9.726,44.971-.055,1.432,2.165,1.432,2.22,0,.574-14.947-4.986-30.615-9.5-44.638-3.2-9.955-6.681-19.851-10.529-29.576-.525-1.318-2.673-.744-2.149.59Z" transform="translate(-54.425 -51.563)" fill="#016fc2"/>
      </g>
      <g id="Group_7161" data-name="Group 7161" transform="translate(128.393 304.154)">
        <path id="Path_28114" data-name="Path 28114" d="M59.151,78.492q1.279,55.624,2.559,111.242.18,7.815.361,15.63a1.113,1.113,0,0,0,2.225,0q-1.287-55.624-2.564-111.242l-.361-15.63a1.11,1.11,0,0,0-2.22,0Z" transform="translate(-59.151 -77.42)" fill="#016fc2"/>
      </g>
      <g id="Group_7162" data-name="Group 7162" transform="translate(546.638 107.2)">
        <path id="Path_28115" data-name="Path 28115" d="M137.357,55.926A51.654,51.654,0,0,0,154.84,43.32c.957-1.055-.612-2.635-1.574-1.574A50.033,50.033,0,0,1,136.236,54c-1.307.58-.18,2.493,1.121,1.924Z" transform="translate(-135.655 -41.394)" fill="#7c4415"/>
      </g>
      <g id="Group_7163" data-name="Group 7163" transform="translate(517.648 58.191)">
        <path id="Path_28116" data-name="Path 28116" d="M131.692,35.446a10.721,10.721,0,0,1,8.764.3c1.285.623,2.411-1.29,1.126-1.919A12.885,12.885,0,0,0,131.1,33.3c-1.323.508-.749,2.662.591,2.143Z" transform="translate(-130.352 -32.429)" fill="#001c31"/>
      </g>
      <g id="Group_7164" data-name="Group 7164" transform="translate(546.894 58.99)">
        <path id="Path_28117" data-name="Path 28117" d="M137.082,35.613c2.816-.754,5.866-1.438,8.6-.038,1.268.651,2.395-1.268,1.121-1.919-3.308-1.695-6.867-1.11-10.311-.186a1.112,1.112,0,0,0,.59,2.143Z" transform="translate(-135.702 -32.575)" fill="#001c31"/>
      </g>
      <g id="Group_7165" data-name="Group 7165" transform="translate(515.946 67.211)">
        <path id="Path_28118" data-name="Path 28118" d="M131.715,37.971c1.859-1.006,3.964-2.006,6.145-1.6,1.514.29,2.837,1.006,4.406,1.121,1.427.1,1.421-2.116,0-2.225-2.2-.164-4-1.383-6.276-1.164a14.593,14.593,0,0,0-5.4,1.946c-1.263.678-.142,2.6,1.121,1.919Z" transform="translate(-130.041 -34.079)" fill="#001c31"/>
      </g>
      <g id="Group_7166" data-name="Group 7166" transform="translate(547.895 68.998)">
        <path id="Path_28119" data-name="Path 28119" d="M137.243,37.194a9.737,9.737,0,0,1,8.534.984c1.214.76,2.334-1.164,1.121-1.919a11.915,11.915,0,0,0-10.245-1.208c-1.35.454-.771,2.6.59,2.143Z" transform="translate(-135.885 -34.406)" fill="#001c31"/>
      </g>
      <g id="Group_7167" data-name="Group 7167" transform="translate(576.564 48.102)">
        <path id="Path_28120" data-name="Path 28120" d="M141.923,32.766c-1.372-.328-.252-.618-.432-.06-.077.246.3,1.061.372,1.318.372,1.367.672,2.75.984,4.133.99,4.385,1.908,8.791,2.843,13.192,2.444,11.552,4.871,23.109,7.643,34.59,1.2,4.959,2.438,9.917,3.92,14.8.875,2.892,1.706,6.211,3.362,8.791,2.5,3.9,7.79,5.806,11.6,8.08,7.167,4.27,10.327,9.425,11.174,17.669,1.263,12.191,1.132,24.618.809,36.858a1.11,1.11,0,0,0,2.22,0,330.611,330.611,0,0,0-.519-33.655c-.465-6.139-.995-12.383-5.287-17.177-4.549-5.079-11.262-6.921-16.412-11.153-2.493-2.056-3.324-5.33-4.281-8.31-1.574-4.909-2.837-9.917-4.062-14.919-2.9-11.874-5.418-23.842-7.949-35.792-1.055-4.991-2.078-9.988-3.237-14.952C144.4,35,144.1,31,142.513,30.618c-1.389-.328-1.985,1.815-.59,2.149Z" transform="translate(-141.129 -30.584)" fill="#2b2d42"/>
      </g>
      <g id="Group_7168" data-name="Group 7168" transform="translate(590.182 46.37)">
        <path id="Path_28121" data-name="Path 28121" d="M143.671,31.639A378.026,378.026,0,0,1,155.043,81.8c1.476,9.688,5.795,17.729,11.694,25.4,2.006,2.608,4.259,5.232,5.543,8.3,1.471,3.515,1.427,7.687,1.509,11.437a220.783,220.783,0,0,1-.82,22.978c-.12,1.427,2.1,1.416,2.22,0,.53-6.451.836-12.94.858-19.413.016-7.32-.022-14.242-4.357-20.4-5.254-7.479-10.852-14.017-13.307-23.087-1.542-5.691-2.006-11.667-3.116-17.456-1.061-5.554-2.3-11.082-3.619-16.581-1.777-7.353-3.685-14.679-5.833-21.928a1.112,1.112,0,0,0-2.143.59Z" transform="translate(-143.62 -30.267)" fill="#2b2d42"/>
      </g>
      <g id="Group_7169" data-name="Group 7169" transform="translate(515.129 43.207)">
        <path id="Path_28122" data-name="Path 28122" d="M161.981,131.662a32.419,32.419,0,0,1-14.17,2.761c-5.243-.268-7.883-1.821-9.666-6.451-3.171-8.233-3.887-17.6-4.647-26.307a334.736,334.736,0,0,1-1.285-39.734c.191-6.052.514-12.1,1.17-18.123.366-3.39.377-9.338,2.706-12.17.9-1.1-.661-2.679-1.574-1.574-2.017,2.46-2.351,6.3-2.8,9.31-.82,5.538-1.208,11.142-1.493,16.729-.4,8.08-.432,16.122-.126,24.2.3,7.982.634,15.947,1.41,23.9.847,8.7,1.471,18.741,5.483,26.673,4.565,9.037,18.626,5.986,26.11,2.712,1.307-.574.175-2.493-1.121-1.924Z" transform="translate(-129.891 -29.688)" fill="#016fc2"/>
      </g>
      <g id="Group_7183" data-name="Group 7183" transform="translate(30.594 0)">
        <path id="Path_28123" data-name="Path 28123" d="M44.36,47.7c-4.133,9.3-1.536,38.969,2.056,47.683S69.995,130.25,72.05,130.764s57.934-55.375,57.934-62.553-5.128-37.427-10.256-42.55S50.516,33.862,44.36,47.7Z" transform="translate(-36.87 -9.485)" fill="#7c4415"/>
        <path id="Path_28124" data-name="Path 28124" d="M59.2,49.187c-2.05,1.536-2.985,17.626-5.549,21.726S41.855,86.291,43.9,87.833,86.46,123.2,88,121.154s14.356-34.349,15.893-33.321,25.126,15.379,25.126,15.379L132.6,67.835,109.017,44.25Z" transform="translate(-30.773 78.565)" fill="#fff"/>
        <path id="Path_28125" data-name="Path 28125" d="M45.915,37.592s4.805,41.976,5.319,50.176S79.75,119.11,93.593,115.01s6.67-35.891,6.67-37.427-4.106-9.742-4.614-14.356S48.479,39.642,48.479,39.642Z" transform="translate(-20.477 48.823)" fill="#f7a98f"/>
        <path id="Path_28126" data-name="Path 28126" d="M89.341,30.313c-5.817,6.981-14.87,21.534-18.97,28.2s-9.228,14.87-9.228,14.87-13.329-18.457-18.457-4.1S60.115,99.531,64.729,96.967s12.82,11.278,16.406,15.379,31.277,11.284,40.5,6.156S135.482,72.354,131.9,57.49s-8.72-26.149-10.77-28.2S91.905,27.235,89.341,30.313Z" transform="translate(-38.269 5.341)" fill="#f7a98f"/>
        <path id="Path_28127" data-name="Path 28127" d="M48.259,41.259S58,69.458,55.951,76.636c0,0,24.612,8.206,36.4,5.642s12.5-45.737,12.5-45.737S51.337,47.923,48.259,41.259Z" transform="translate(-10.007 44.129)" fill="#a1cdf0"/>
        <path id="Path_28128" data-name="Path 28128" d="M42.087,41.033C38.84,45.5,46.188,65.646,46.7,67.182S68.236,66.668,102.585,60s25.64-11.792,25.64-11.792-5.128-23.585-7.692-26.149S46.188,35.4,42.087,41.033Z" transform="translate(-41.262 -21.785)" fill="#27a77e"/>
        <path id="Path_28129" data-name="Path 28129" d="M49.668,44.293c-.126,1.536,4.9,27.685,4.9,27.685s19.195,5.385,26.5,5.128,9.573-1.667,9.573-1.667,4.27-2.307,6.194-13.329S98.3,37.268,98.3,37.268s-8,2.794-23.382,4.718S49.668,44.293,49.668,44.293Z" transform="translate(-3.723 47.376)" fill="#d2e7f8"/>
        <path id="Path_28130" data-name="Path 28130" d="M56.278,38.465a4.616,4.616,0,1,0,3.668-5.4A4.613,4.613,0,0,0,56.278,38.465Z" transform="translate(25.448 28.253)" fill="#001c31"/>
        <path id="Path_28131" data-name="Path 28131" d="M50.063,39.354a4.616,4.616,0,1,0,3.674-5.4A4.621,4.621,0,0,0,50.063,39.354Z" transform="translate(-2.314 32.224)" fill="#001c31"/>
        <g id="Group_7170" data-name="Group 7170" transform="translate(39.447 52.509)">
          <path id="Path_28132" data-name="Path 28132" d="M50.125,37.377a25.328,25.328,0,0,1,15.22-3.7c1.427.1,1.421-2.127,0-2.225a27.515,27.515,0,0,0-16.341,4c-1.219.744-.1,2.668,1.121,1.924Z" transform="translate(-48.478 -31.39)" fill="#001c31"/>
        </g>
        <g id="Group_7171" data-name="Group 7171" transform="translate(76.452 47.512)">
          <path id="Path_28133" data-name="Path 28133" d="M56.9,34.861a13.911,13.911,0,0,1,10.229-1.9c1.4.273,2-1.87.6-2.149A16.3,16.3,0,0,0,55.77,32.942c-1.214.754-.1,2.679,1.126,1.919Z" transform="translate(-55.246 -30.476)" fill="#001c31"/>
        </g>
        <g id="Group_7172" data-name="Group 7172" transform="translate(43.64 64.51)">
          <path id="Path_28134" data-name="Path 28134" d="M51.183,39.549a15.406,15.406,0,0,1,11.322-3.7c1.432.1,1.421-2.127,0-2.225a17.659,17.659,0,0,0-12.9,4.352c-1.082.929.492,2.5,1.574,1.569Z" transform="translate(-49.244 -33.585)" fill="#001c31"/>
        </g>
        <g id="Group_7173" data-name="Group 7173" transform="translate(78.128 60.152)">
          <path id="Path_28135" data-name="Path 28135" d="M57.221,37.184a16.822,16.822,0,0,1,11.24-1.941c1.4.246,2-1.9.6-2.143A19.3,19.3,0,0,0,56.1,35.26c-1.252.7-.131,2.619,1.121,1.924Z" transform="translate(-55.553 -32.788)" fill="#001c31"/>
        </g>
        <g id="Group_7174" data-name="Group 7174" transform="translate(5.514 68.63)">
          <path id="Path_28136" data-name="Path 28136" d="M43.875,37.352c4.625-3.368,15.931,6,19.528,8.545,5.281,3.728,10.371,7.708,15.663,11.415,1.175.82,2.285-1.1,1.121-1.919-6.8-4.762-13.274-9.994-20.228-14.531-4.111-2.684-12.213-9.07-17.2-5.429-1.148.836-.038,2.766,1.121,1.919Z" transform="translate(-42.271 -34.339)" fill="#a1cdf0"/>
        </g>
        <g id="Group_7175" data-name="Group 7175" transform="translate(27.295 100.982)">
          <path id="Path_28137" data-name="Path 28137" d="M46.6,42.145q9.619,9.176,19.249,18.347c1.033.99,2.608-.58,1.569-1.569L48.17,40.571c-1.039-.99-2.613.585-1.574,1.575Z" transform="translate(-46.255 -40.256)" fill="#a1cdf0"/>
        </g>
        <g id="Group_7176" data-name="Group 7176" transform="translate(18.156 5.503)">
          <path id="Path_28138" data-name="Path 28138" d="M45.643,36.93A270.925,270.925,0,0,0,100.548,25c1.356-.443.776-2.591-.59-2.143A267.957,267.957,0,0,1,45.643,34.705c-1.405.159-1.421,2.384,0,2.225Z" transform="translate(-44.583 -22.792)" fill="#2acc98"/>
        </g>
        <g id="Group_7177" data-name="Group 7177" transform="translate(35.997 13.549)">
          <path id="Path_28139" data-name="Path 28139" d="M48.921,32.586c9.288.273,17.926-2.821,26.482-6.1,1.323-.5.749-2.657-.59-2.143-8.364,3.209-16.806,6.287-25.892,6.019-1.432-.044-1.432,2.181,0,2.225Z" transform="translate(-47.847 -24.264)" fill="#2acc98"/>
        </g>
        <path id="Path_28140" data-name="Path 28140" d="M123.99,24.9A119.8,119.8,0,0,1,93.506,35.339C77.225,38.286,41.717,44.1,41.717,44.108l3.149,11.207s9.42,1.044,39.155-2.8,42.992-13.564,43.67-14.214S123.99,24.9,123.99,24.9Z" transform="translate(-39.23 -7.885)" fill="#2acc98"/>
        <g id="Group_7178" data-name="Group 7178" transform="translate(74.779 70.528)">
          <path id="Path_28141" data-name="Path 28141" d="M54.944,35.572a60.557,60.557,0,0,0,2.072,11.393.924.924,0,0,0,1.782-.487,57.711,57.711,0,0,1-2.006-10.907c-.1-1.175-1.946-1.186-1.848,0Z" transform="translate(-54.94 -34.686)" fill="#7c4415"/>
        </g>
        <g id="Group_7179" data-name="Group 7179" transform="translate(78.385 84.315)">
          <path id="Path_28142" data-name="Path 28142" d="M55.66,38.341c1.121,3.51.585,7.031-.044,10.584-.208,1.164,1.574,1.662,1.782.492.683-3.865,1.257-7.747.038-11.568-.361-1.126-2.143-.645-1.777.492Z" transform="translate(-55.6 -37.208)" fill="#6caee3"/>
        </g>
        <path id="Path_28143" data-name="Path 28143" d="M50.158,37.493c-3.985-1.225-10.715,7.555-4.051,11.114,4.313,2.3,8.55-4.6,5.686-9.7A2.828,2.828,0,0,0,50.158,37.493Z" transform="translate(-32.205 47.862)" fill="#001c31"/>
        <g id="Group_7180" data-name="Group 7180" transform="translate(12.708 92.882)">
          <path id="Path_28144" data-name="Path 28144" d="M43.589,39.984a230.466,230.466,0,0,0,5.926,40.942c2.526,10.283,7.085,20.441,16.368,26.258,9.753,6.118,22.054,6.418,33.141,5.057,10.786-1.323,22.677-4.117,29.248-13.6,7.818-11.295,2.045-28.439-3.2-39.63-.683-1.46-2.848-.186-2.165,1.268a65.53,65.53,0,0,1,6.462,24.41,20.354,20.354,0,0,1-9.409,18.593c-5.708,3.821-12.651,5.3-19.348,6.243a67.4,67.4,0,0,1-20.78.131c-14.241-2.466-22.912-12.2-26.9-25.678-4.155-14.028-5.97-29.445-6.834-43.993-.093-1.607-2.6-1.618-2.509,0Z" transform="translate(-43.587 -38.775)" fill="#001c31"/>
        </g>
        <g id="Group_7181" data-name="Group 7181" transform="translate(35.134 147.506)">
          <path id="Path_28145" data-name="Path 28145" d="M47.86,64.427c3.28,5.85,9.595,8.5,15.778,10.256a49.877,49.877,0,0,0,24.186,1.159c12.279-2.712,24.618-12.18,23.781-25.87-.1-1.6-2.608-1.613-2.509,0C109.867,62.541,98.381,71,87.157,73.42a46.626,46.626,0,0,1-21.409-.765c-5.992-1.542-12.525-3.794-15.723-9.491a1.254,1.254,0,0,0-2.165,1.263Z" transform="translate(-47.689 -48.767)" fill="#001c31"/>
        </g>
        <g id="Group_7182" data-name="Group 7182" transform="translate(59.546 172.948)">
          <path id="Path_28146" data-name="Path 28146" d="M64.761,54.628c-1.684,26.427-16.718,51.477-11.519,78.4,4.138,21.425,23.869,36.186,45.682,32.917,1.591-.241.913-2.657-.667-2.422a38.018,38.018,0,0,1-30.047-8.643C59.3,147.3,55.319,136.031,54.762,124.594,53.592,100.529,65.75,78.409,67.27,54.628c.1-1.613-2.405-1.607-2.509,0Z" transform="translate(-52.154 -53.42)" fill="#001c31"/>
        </g>
      </g>
      <g id="Group_7185" data-name="Group 7185" transform="translate(516.429 7.97)">
        <path id="Path_28147" data-name="Path 28147" d="M131.381,28.956c.077,11.546-1.252,27.931-1.252,27.931s.525,10.447,36.41,8.911S215.25,55.542,215.25,55.542l-1.542-32.3L135.328,24.9A4.029,4.029,0,0,0,131.381,28.956Z" transform="translate(-130.129 -23.243)" fill="#c4dff4"/>
        <path id="Path_28148" data-name="Path 28148" d="M130.758,33.114s5.024,5.4,22.584,6.746,60.88-15,61.908-13.077,0,15.838,0,15.838-26.187,10.551-54.167,9.349-30.954-7.435-30.954-7.435Z" transform="translate(-130.129 -8.135)" fill="#6caee3"/>
        <g id="Group_7184" data-name="Group 7184" transform="translate(2.432 4.657)">
          <path id="Path_28149" data-name="Path 28149" d="M131.958,24.713c-4.477,3.548,3.133,6.44,5.593,7.326a77.912,77.912,0,0,0,22.737,4.341c16.073.705,31.867-3.351,46.409-9.994,1.465-.672.191-2.832-1.268-2.165-11.661,5.325-24.148,8.939-37,9.611a81.268,81.268,0,0,1-18.1-1.033,74,74,0,0,1-8.61-2.028c-.962-.29-9.5-3.089-7.982-4.286,1.263-1-.525-2.766-1.777-1.771Z" transform="translate(-130.574 -24.095)" fill="#6caee3"/>
        </g>
      </g>
      <g id="Group_7186" data-name="Group 7186" transform="translate(564.563 322.95)">
        <path id="Path_28150" data-name="Path 28150" d="M138.958,87.638q1.058,5.429,2.127,10.852a1.093,1.093,0,0,0,.776.776c8.824,2.127,18.533,1.64,27.384.142a129.41,129.41,0,0,0,16.221-3.619,17.489,17.489,0,0,0,3.767-1.416,1.152,1.152,0,0,0,.508-1.252q-.861-5.732-1.728-11.459c-.213-1.41-2.356-.809-2.143.59q.525,3.477,1.05,6.949c.1.716.055,3.335.585,3.876.738.754.12-.563.454-.541-1.006-.066-3.029,1.1-3.991,1.378-4.237,1.219-8.572,2.1-12.9,2.914A83.529,83.529,0,0,1,153.3,98.342c-3.193-.1-6.713-1.154-9.846-1.006-1.465.071-.4-.262-.29.257-.251-1.164-.459-2.345-.689-3.515q-.689-3.518-1.378-7.031c-.273-1.405-2.422-.809-2.143.59Z" transform="translate(-138.934 -80.858)" fill="#016fc2"/>
      </g>
      <g id="Group_7187" data-name="Group 7187" transform="translate(541.236 247.582)">
        <path id="Path_28151" data-name="Path 28151" d="M147.517,68.138c1.082,11.612,1.93,23.278,2.252,34.94.093,3.488.148,6.987.005,10.48-.082,2.083.044,4.838-.88,6.779.251-.525-.481.508-.634.705-.689.886-1.4,1.755-2.056,2.668a59.131,59.131,0,0,0-6.041,10.59c-5.861,13.192-5.593,27.122-5.44,41.238.18,16.259.831,32.512,1.574,48.749.47,10.24.979,20.479,1.58,30.714.088,1.421,2.313,1.432,2.225,0-1.432-24.323-2.586-48.684-3.056-73.039-.268-13.815-1.329-28.56,3.2-41.833a59.125,59.125,0,0,1,6.446-13.208c1.17-1.8,2.777-3.379,3.9-5.183,2.1-3.4,1.487-9.1,1.487-12.9-.006-13.575-1.083-27.2-2.34-40.7-.131-1.416-2.356-1.427-2.225,0Z" transform="translate(-134.666 -67.072)" fill="#016fc2"/>
      </g>
      <g id="Group_7188" data-name="Group 7188" transform="translate(565.646 299.378)">
        <path id="Path_28152" data-name="Path 28152" d="M139.21,77.89q2.157,5.642,4.171,11.344c.47,1.345,2.619.765,2.143-.59q-2.009-5.7-4.171-11.35c-.508-1.323-2.657-.743-2.143.6Z" transform="translate(-139.132 -76.546)" fill="#016fc2"/>
      </g>
      <g id="Group_7189" data-name="Group 7189" transform="translate(588.363 293.994)">
        <path id="Path_28153" data-name="Path 28153" d="M143.665,77.4c3.521,2.848,5.822,7.255,8.354,10.95.8,1.17,2.734.06,1.919-1.121-2.63-3.843-5.035-8.436-8.7-11.4-1.1-.891-2.684.672-1.574,1.569Z" transform="translate(-143.287 -75.561)" fill="#016fc2"/>
      </g>
      <g id="Group_7190" data-name="Group 7190" transform="translate(517.607 293.024)">
        <path id="Path_28154" data-name="Path 28154" d="M135.159,75.871l-4.609,6.413c-.836,1.164,1.093,2.28,1.924,1.126q2.3-3.215,4.6-6.418c.836-1.165-1.093-2.274-1.919-1.121Z" transform="translate(-130.344 -75.384)" fill="#016fc2"/>
      </g>
      <g id="Group_7191" data-name="Group 7191" transform="translate(557.208 264.271)">
        <path id="Path_28155" data-name="Path 28155" d="M138.954,107.319a79.5,79.5,0,0,0,45-35.535,1.116,1.116,0,0,0-1.924-1.126,77.118,77.118,0,0,1-43.665,34.513c-1.361.421-.782,2.569.59,2.149Z" transform="translate(-137.588 -70.125)" fill="#016fc2"/>
      </g>
      <g id="Group_7192" data-name="Group 7192" transform="translate(578.484 274.967)">
        <path id="Path_28156" data-name="Path 28156" d="M143.406,82.862a28.91,28.91,0,0,0,6.686-9.086c.607-1.29-1.312-2.416-1.919-1.121a27.213,27.213,0,0,1-6.342,8.638c-1.061.968.519,2.537,1.574,1.569Z" transform="translate(-141.48 -72.081)" fill="#016fc2"/>
      </g>
      <g id="Group_7193" data-name="Group 7193" transform="translate(520.549 145.864)">
        <path id="Path_28157" data-name="Path 28157" d="M156.3,48.75c-12.366,10.644-21.83,24.853-25.389,40.888-.191.858.793,1.864,1.635,1.257a212.476,212.476,0,0,1,19.331-12.667l-1.52-.4a8.609,8.609,0,0,0,1.766,1.957c1.072.94,2.652-.623,1.574-1.569-.47-.5-.946-1.006-1.421-1.509a1.135,1.135,0,0,0-1.52-.4,212.821,212.821,0,0,0-19.331,12.662l1.629,1.257c3.488-15.7,12.711-29.489,24.815-39.9,1.088-.935-.492-2.5-1.569-1.574Z" transform="translate(-130.883 -48.466)" fill="#016fc2"/>
      </g>
      <g id="Group_7212" data-name="Group 7212" transform="translate(0 12.453)">
        <g id="Group_7195" data-name="Group 7195" transform="translate(104.951)">
          <g id="Group_7194" data-name="Group 7194" transform="translate(0)" clip-path="url(#clip-path)">
            <circle id="Ellipse_302" data-name="Ellipse 302" cx="195.523" cy="195.523" r="195.523" transform="matrix(0.15, -0.989, 0.989, 0.15, 0, 386.612)" fill="#424883"/>
            <path id="Path_28158" data-name="Path 28158" d="M176.485,150.676c-23.787,2.908-46.185-1.214-67.67-10.568-6.692-2.914-39.094-11.076-25.881-23.295C94.415,106.2,112.811,120.8,124.2,110.5c4.554-4.122,2.526-9.365,9.223-11.623,5.161-1.733,11.18,1.148,16.62-.131,6.522-1.536,13.257-10.081,20.206-7.02,5.948,2.63,4.379,11.2,7.8,14.63,4.942,4.959,52.543-6.183,44.376,10.945,8.381-1.76,30.019-2.848,29.527,11.207-.4,11.349-18.741,10.551-26.8,12.29C208.757,144.34,193.231,148.626,176.485,150.676Z" transform="translate(56.522 275.274)" fill="#7dcab2"/>
            <path id="Path_28159" data-name="Path 28159" d="M286.74,39.048c-16.5-6.484-45.491,3.975-62.029,8.129-15.335,3.849-18.068,17.571-32.616,23.371-20.414,8.14-41.522-.246-61.034,12.891-8.288,5.587-16.068,11.694-24.432,17.106-10.2,6.593-27.477,9.5-34.7,19.894-4,5.751-2.7,8.026-.782,13.93,1.591,4.9,2.832,11.623,4.838,16.149,5.686-2.553,11.306-1.115,17.254-2.017,10.918-1.646,7.452-2.395,9.212-10.344.973-4.39-.6-4.953,2.81-7.676,2.887-2.3,12.973-3.078,16.937-3.707,5.97-.946,19.911-2.187,25.044,2.034,7.43,6.112.361,12.623,12.94,13.055,8.463.29,12.4-2.318,16.434-8.386,4.215-6.347,7.326-14.28,18.014-7.052,7.189,4.866,4.625,10.141,4.363,17.445-.159,4.428,1.5,6.894-1.039,10.7-3.411,5.128-7.3,2.138-9.343,9.513-1.93,6.959,3.089,14.537,9.228,18.582,8.332-5.642,12.115-12.071,18.566-.044,8.851,16.51,7.894,30.6,31.359,32.381,11.743.891,21.261.6,26.9-10.65,5.538-11.027,4.532-24.749,19.32-28.92,13.886-3.914,28.57,4.308,34.273,17.27,3.373,7.67,1.143,9.748,8,14.176,4.871,3.149,15.45,5.981,20.168,1.432,6-5.779-.005-10.524-.06-16.734-.093-11.59,10.841-21.863,16.729-30.987,6.265-9.7,11.273-19.8,12.038-30.817.574-8.31,2.613-19.845,2.2-28.412-1.055-21.824-21.8-36.694-37.2-48.962-12.334-9.824-25.449-22.01-42.069-21.7C302.632,30.8,289.61,31.214,286.74,39.048Z" transform="translate(9.68 5.557)" fill="#21b37e"/>
            <path id="Path_28160" data-name="Path 28160" d="M123.482,36.534c-3.537-.2-7.577-3.007-11.109-2.777-6.418.426-36.76,17.822-33.163,25.946,2.8,6.331,15.543-3,19.736-3.652,8.151-1.274,15.138,1.022,23.634-2.154,4.647-1.738,16.385-6.91,15.3-13.411C136.515,32.3,122.5,35.834,117,36.534Z" transform="translate(52.576 19.18)" fill="#21b37e"/>
            <path id="Path_28161" data-name="Path 28161" d="M94.472,38.637a12.925,12.925,0,0,0-8.441,4.631c8.173,7.151,33.638,4.784,44.551,5.757,9.4.836,16.494-4.095,25.2-7.38,8.9-3.351,21.272-2.744,28.625-8.539-6.489-9.846-43.069-1.667-53.434-.722-12.514,1.143-24.2,5.068-36.432,6.462C97.277,39.671,94.6,39.337,94.472,38.637Z" transform="translate(84.363 -5.141)" fill="#21b37e"/>
            <path id="Path_28162" data-name="Path 28162" d="M76.664,44.476c-3.127,4.335-14.843,11.989-7.905,16.7,3.171,2.154,19.528-3.122,22.923-4.434,7.315-2.821,18.1-10.344,9.053-15.761-6.943-4.155-16.106,1.1-22.223,3.5Z" transform="translate(-2.445 44.57)" fill="#21b37e"/>
            <path id="Path_28163" data-name="Path 28163" d="M194.123,184.294c8.365-25.017,13.372-46.475,13.531-72.733.126-20.5-.749-39.718-20.95-50.624-11.738-6.347-36-6.511-49.5-7.014-12.919-.481-26.46-.547-38.93,3.007C79.448,62.3,62.8,84.314,67.852,104.842c3.007,12.2,16.013,22.994,27.745,26.712,11.038,3.493,23.147-.951,33.977,3.614,23.415,9.862,21.491,40.133,24.509,60.869.957,6.61,4,29.232,11.809,31.315C183.441,232.038,190.75,194.381,194.123,184.294Z" transform="translate(-0.937 108.266)" fill="#21b37e"/>
            <path id="Path_28164" data-name="Path 28164" d="M110.057,77.662c-8.425,8.326-12.323,14.028-14.788,25.946-1.564,7.55-7.7,21.95,4.138,20.457,10.551-1.323,19.074-18.916,21.753-27.909C122.675,91.083,123.62,69.8,110.057,77.662Z" transform="translate(112.296 207.66)" fill="#21b37e"/>
            <path id="Path_28165" data-name="Path 28165" d="M139.779,84.229c-9.7,7.512-30.621,26.963-24.1,41.123,3.143,6.823,8.4,6.489,14.641,6.15,7.971-.437,6.489-2.209,12.47,2.728,1.744,1.438,1.46,5.106,3.663,6.293,2.969,1.591,7.074-1.137,10.043-.776,6.112.749,8.665,6.358,13.842,6.555,9.759.377,18.566-17.784,20.862-24.946,3.57-11.131,2.63-23.328-4.2-33.234-5.3-7.7-17.123-13.755-26.641-12.962-7.315.612-13.066,8.381-18.976,8.512C140.189,84.918,139.839,86.727,139.779,84.229Z" transform="translate(211.262 203.871)" fill="#21b37e"/>
            <path id="Path_28166" data-name="Path 28166" d="M110.45,66.2c-6.282,5.183-2.81,15.778,6.085,11.508a9.255,9.255,0,0,0,1-.558c8.064-5.112,4.909-17.172-5.1-12.23A10.4,10.4,0,0,0,110.45,66.2Z" transform="translate(179.163 153.262)" fill="#7dcab2"/>
          </g>
        </g>
        <g id="Group_7201" data-name="Group 7201" transform="translate(376.966 85.676)">
          <path id="Path_28167" data-name="Path 28167" d="M143.748,74.086s-27.647-19.55-28.319-14.16,12.137,10.792,12.137,12.815-14.16-10.792-18.878-10.114-6.068,19.55,1.345,26.3,33.715,11.459,36.41,5.39S143.748,74.086,143.748,74.086Z" transform="translate(-103.768 46.261)" fill="#f7a98f"/>
          <path id="Path_28168" data-name="Path 28168" d="M136.8,61.037l-25.378.711s0,34.234,2.307,34.945,20,0,20,0Z" transform="translate(-74.234 55.423)" fill="#fff"/>
          <path id="Path_28169" data-name="Path 28169" d="M277.793,47.071c-16,2.351-71.519,61.526-82.289,64.6s-79.982,6.921-80.748,13.077,2.307,33.07,4.614,35.377,79.211,7.687,113.052,0S299.327,114.747,302.4,100.9,303.941,43.222,277.793,47.071Z" transform="translate(-59.878 -8.029)" fill="#c7e1f6"/>
          <path id="Path_28170" data-name="Path 28170" d="M149.678,44.171c-1.651,9.217-2.2,19-3.16,28.45-.743,7.277-.366,15.433-2.2,22.322-1.569,5.872-6.615,11.131-7.424,17.287-1.667,12.694,14.947,17.549,15.111,30.79.076,5.817-5.445,8.386-7.14,13.711-1.487,4.669-.224,11.459,3.991,14.274-2.969-5.281.476-10.059,4.745-13.394,8.4-6.549,18.938-16.434,12.47-27.658-2.952-5.123-6.582-9.223-3.308-15.2,4.139-7.566,12.563-10.661,19.074-15.625,5.9-4.5,7.369-7.78,4.554-14.75a88.9,88.9,0,0,0-9.584-17.33c-3.5-5.073-8.146-8.753-11.9-13.454C162.329,50.354,153.631,31.247,149.678,44.171Z" transform="translate(39.015 -39.735)" fill="#001c31"/>
          <g id="Group_7196" data-name="Group 7196" transform="translate(77.389 102.389)">
            <path id="Path_28171" data-name="Path 28171" d="M120.171,67.756c12.951-2.334,25.979-4.445,39.051-5.981,6.364-.749,13.8-2.236,20.1-.394a40.6,40.6,0,0,1,14.646,8.441c.825.716,9.7,9.715,6.888,11-1.678.771-7.085-5.959-8.047-7.031-1.771-1.974-3.483-4.013-5.112-6.1-.88-1.132-2.444.454-1.569,1.569q2.673,3.436,5.609,6.659c2.1,2.313,4.86,5.882,7.993,6.867,2.291.727,3.57-.705,3.521-3-.1-4.264-4.007-8.179-6.916-10.836-7.14-6.517-15.707-10.912-25.449-10.458-9.775.459-19.534,2-29.194,3.466q-11.079,1.681-22.114,3.652c-1.41.252-.815,2.395.59,2.143Z" transform="translate(-118.775 -58.463)" fill="#016fc2"/>
          </g>
          <g id="Group_7197" data-name="Group 7197" transform="translate(130.389 96.319)">
            <path id="Path_28172" data-name="Path 28172" d="M129.539,118.228c19.648-.979,39.893-1.028,57.934-9.955,20.944-10.354,41.691-28.215,52.418-49.236.651-1.274-1.268-2.4-1.919-1.121-10.573,20.72-30.987,38.231-51.619,48.438-17.664,8.736-37.575,8.692-56.813,9.649-1.421.071-1.432,2.3,0,2.225Z" transform="translate(-128.469 -57.353)" fill="#016fc2"/>
          </g>
          <g id="Group_7198" data-name="Group 7198" transform="translate(2.388 107.818)">
            <path id="Path_28173" data-name="Path 28173" d="M108.234,61.767l.109.049A1.107,1.107,0,0,0,109.6,61.3l.071-.137A1.127,1.127,0,0,0,109,59.531c-3.7-.765-4.931,4.516-3.133,6.9,1.738,2.291,4.674,4.018,6.976,5.724,3.165,2.345,6.44,4.521,9.8,6.577,1.225.749,2.34-1.175,1.121-1.919-3.007-1.837-5.948-3.772-8.8-5.844-1.6-1.159-3.171-2.362-4.707-3.6A9.321,9.321,0,0,1,108.48,65.9c-.213-.306-1.487-4.521-.066-4.226l-.662-1.635-.071.142,1.252-.508-.109-.049c-1.323-.541-1.9,1.607-.59,2.143Z" transform="translate(-105.056 -59.456)" fill="#7c4415"/>
          </g>
          <g id="Group_7199" data-name="Group 7199" transform="translate(0.282 110.719)">
            <path id="Path_28174" data-name="Path 28174" d="M106.624,60.37c-7.189,8.96,7.266,16.909,14.2,18.96a1.113,1.113,0,0,0,.6-2.143c-5.03-1.487-19-8.042-13.225-15.247.891-1.1-.672-2.69-1.569-1.569Z" transform="translate(-104.671 -59.987)" fill="#7c4415"/>
          </g>
          <g id="Group_7200" data-name="Group 7200" transform="translate(0 118.595)">
            <path id="Path_28175" data-name="Path 28175" d="M105.827,61.7c-2.487,2.039-.579,6.681.782,8.829,2.482,3.914,6.6,6.21,10.491,8.5a1.112,1.112,0,0,0,1.121-1.919,41.2,41.2,0,0,1-7.326-4.926c-1.416-1.312-6.008-6.85-3.493-8.906,1.1-.908-.476-2.477-1.575-1.574Z" transform="translate(-104.619 -61.428)" fill="#7c4415"/>
          </g>
        </g>
        <g id="Group_7211" data-name="Group 7211" transform="translate(0 154.291)">
          <path id="Path_28176" data-name="Path 28176" d="M98.846,89.822c-4.975,12.421-17.106,19.244-27.094,15.242S57.7,87.75,62.677,75.329,79.783,56.085,89.771,60.087,103.821,77.4,98.846,89.822Z" transform="translate(75.502 -22.552)" fill="#fff"/>
          <g id="Group_7202" data-name="Group 7202" transform="translate(108.023 59.485)">
            <path id="Path_28177" data-name="Path 28177" d="M102.507,64.057c-5.631,21.228.066,43.49-5.2,64.729-2.088,8.414-6.189,16.652-12.6,22.6-3.226,2.99-8.151,6.533-12.7,6.867-5.15.372-10.939-6.659-14.433-10.125A1.253,1.253,0,0,0,55.8,149.9c3.5,3.482,7.763,8.463,12.4,10.442,3.493,1.487,7.572-.317,10.743-1.892,8.321-4.139,14.269-12.055,17.893-20.43,10.037-23.213,1.738-49.334,8.091-73.3a1.254,1.254,0,0,0-2.416-.667Z" transform="translate(-55.425 -63.166)" fill="#001c31"/>
          </g>
          <path id="Path_28178" data-name="Path 28178" d="M58.669,98.194s10-22.3,21.535-30.763S98.66,58.974,98.66,58.974s6.15,5.385,1.536,8.457S87.9,82.045,87.9,82.045s11.535-9.228,12.3-6.921a16.439,16.439,0,0,1,.771,4.614S92.51,86.659,90.2,92.044s-13.077,26.149-19.227,26.149S58.669,98.194,58.669,98.194Z" transform="translate(67.089 -22.407)" fill="#f7a98f"/>
          <path id="Path_28179" data-name="Path 28179" d="M70.163,52.972c13.842,6.15,35.891,86.646,35.891,86.646s57.677-23.842,59.213-21.534,15.384,55.375,15.384,55.375S99.9,256.514,78.364,247.285s-46.141-116.9-42.3-153.043S70.163,52.972,70.163,52.972Z" transform="translate(-35.666 -49.218)" fill="#c7e1f6"/>
          <g id="Group_7203" data-name="Group 7203" transform="translate(10.414)">
            <path id="Path_28180" data-name="Path 28180" d="M64.081,53.99c9.977,23.486,19.812,47.207,27.843,71.437,1.826,5.494,4.128,11.426,4.5,17.259a1.126,1.126,0,0,0,1.41,1.072l59.213-21.534-1.367-.776q5.158,18.549,10.305,37.1l3,10.786c.558,1.99.82,4.74,1.82,6.555.656,1.186-.525.809.536-.137a6.551,6.551,0,0,1-.754.705c-1.711,1.055-3.253,3.023-4.723,4.385-13.8,12.738-27.761,25.334-42.189,37.367-6.566,5.483-13.208,11.087-20.441,15.685-13.421,8.534-30.167,6.987-42.364-3.018-8.326-6.828-11.65-18.3-14.919-28.155-2.307-6.954-4.4-14-6.2-21.108a1.112,1.112,0,0,0-2.143.59,261.377,261.377,0,0,0,9.8,31.162c2.127,5.412,4.406,11.328,8.326,15.729a40.033,40.033,0,0,0,20.523,11.8c16.374,3.772,29.128-5.134,41.232-14.777,11.738-9.349,22.994-19.3,34.152-29.325q10.734-9.644,21.283-19.484a1.1,1.1,0,0,0,.284-1.077q-7.692-27.693-15.379-55.375a1.124,1.124,0,0,0-1.372-.776L97.25,141.615l1.405,1.072c-.317-4.882-2-9.748-3.455-14.378-2.351-7.43-5.019-14.755-7.758-22.048C81.926,91.553,76.049,76.978,70.024,62.474Q68.031,57.661,66,52.869c-.558-1.312-2.477-.18-1.919,1.121Z" transform="translate(-37.571 -52.285)" fill="#016fc2"/>
          </g>
          <g id="Group_7204" data-name="Group 7204" transform="translate(33.098 89.288)">
            <path id="Path_28181" data-name="Path 28181" d="M78.223,68.943A248.687,248.687,0,0,0,54.485,96.289c-4.084,5.5-20.348,26.608-8.539,32.392,3.045,1.5,4.734-1.192,5.882-3.69,3.384-7.342,5.713-14.8,10.229-21.633.793-1.192-1.132-2.307-1.919-1.121a84.768,84.768,0,0,0-8.19,16.456c-.836,2.17-2.619,10.059-5.877,7.359-3.969-3.28-.689-10.426,1.039-13.985,6.079-12.487,15.8-23.4,25.11-33.567,2.477-2.706,4.98-5.39,7.572-7.982a1.112,1.112,0,0,0-1.569-1.574Z" transform="translate(-41.72 -68.617)" fill="#016fc2"/>
          </g>
          <g id="Group_7205" data-name="Group 7205" transform="translate(151.843 52.167)">
            <path id="Path_28182" data-name="Path 28182" d="M65.28,73.568a46.991,46.991,0,0,1,5.412-5.625,26.145,26.145,0,0,1,3.373-2.635,8.568,8.568,0,0,1,2.187-1.1q3.477,1.722.891,3.548c-.973,1.05.6,2.624,1.574,1.575,1.214-1.307,2.788-3.264,2.214-5.194-.519-1.755-2.444-2.411-4.106-2.291-2.159.153-4.057,1.6-5.691,2.876A46.539,46.539,0,0,0,63.711,72c-.9,1.1.661,2.679,1.569,1.569Z" transform="translate(-63.44 -61.827)" fill="#7c4415"/>
          </g>
          <g id="Group_7206" data-name="Group 7206" transform="translate(148.954 40.243)">
            <path id="Path_28183" data-name="Path 28183" d="M64.771,75.827a77.565,77.565,0,0,1,6.6-6.867q1.755-1.607,3.619-3.105c.35-.279,3.958-3.526,4.565-3.362,3.373.918-3.668,6.965-4.625,7.938a26.335,26.335,0,0,0-4.723,6.178c-.662,1.263,1.257,2.389,1.919,1.121,2.362-4.494,6.582-7.288,9.605-11.257,1.23-1.613,2.947-4.62.793-6.287-2.548-1.963-6.375,1.957-8.173,3.362A77.384,77.384,0,0,0,63.2,74.252c-.929,1.082.64,2.662,1.574,1.574Z" transform="translate(-62.912 -59.646)" fill="#7c4415"/>
          </g>
          <g id="Group_7207" data-name="Group 7207" transform="translate(146.784 36.307)">
            <path id="Path_28184" data-name="Path 28184" d="M64.39,73.243a44.4,44.4,0,0,1,8.261-7.211c1.214-.815,9.7-7.692,9.578-2.608a1.113,1.113,0,0,0,2.225,0c.109-4.767-3.018-5.445-6.648-3.433a59.1,59.1,0,0,0-14.99,11.677c-.962,1.055.607,2.635,1.574,1.574Z" transform="translate(-62.515 -58.926)" fill="#7c4415"/>
          </g>
          <g id="Group_7208" data-name="Group 7208" transform="translate(38.195 97.926)">
            <path id="Path_28185" data-name="Path 28185" d="M44.542,86.722A71.346,71.346,0,0,1,64.2,72.251c1.279-.645.153-2.564-1.121-1.924A73.331,73.331,0,0,0,42.967,85.147c-.99,1.033.58,2.608,1.575,1.575Z" transform="translate(-42.652 -70.197)" fill="#016fc2"/>
          </g>
          <g id="Group_7209" data-name="Group 7209" transform="translate(112.248 74.471)">
            <path id="Path_28186" data-name="Path 28186" d="M56.237,67.29a333.4,333.4,0,0,0,20.709,58.3c.6,1.3,2.515.17,1.919-1.121A330.978,330.978,0,0,1,58.38,66.7a1.112,1.112,0,0,0-2.143.59Z" transform="translate(-56.198 -65.907)" fill="#016fc2"/>
          </g>
          <g id="Group_7210" data-name="Group 7210" transform="translate(57.067 36.224)">
            <path id="Path_28187" data-name="Path 28187" d="M46.124,60.3c1.793,10.371,2.487,21.048,6.539,30.8.541,1.3,2.7.733,2.143-.59-4.013-9.66-4.756-20.5-6.539-30.8-.246-1.405-2.389-.809-2.143.59Z" transform="translate(-46.104 -58.911)" fill="#016fc2"/>
          </g>
        </g>
      </g>
      <g id="Group_7213" data-name="Group 7213" transform="translate(99.69 215.601)">
        <path id="Path_28188" data-name="Path 28188" d="M54.963,64.928A75.749,75.749,0,0,0,64.486,63.4c1.394-.317.8-2.46-.59-2.143A70.535,70.535,0,0,1,54.963,62.7c-1.41.137-1.421,2.362,0,2.225Z" transform="translate(-53.901 -61.222)" fill="#016fc2"/>
      </g>
      <g id="Group_7214" data-name="Group 7214" transform="translate(114.427 332.774)">
        <path id="Path_28189" data-name="Path 28189" d="M57.671,84.881l7.949.241a1.113,1.113,0,0,0,0-2.225l-7.949-.241c-1.432-.044-1.432,2.181,0,2.225Z" transform="translate(-56.596 -82.655)" fill="#016fc2"/>
      </g>
      <g id="Group_7215" data-name="Group 7215" transform="translate(113.411 375.243)">
        <path id="Path_28190" data-name="Path 28190" d="M57.479,92.647q3.838.312,7.681.612c1.427.115,1.421-2.1,0-2.22q-3.838-.312-7.681-.612c-1.427-.115-1.421,2.1,0,2.22Z" transform="translate(-56.411 -90.423)" fill="#016fc2"/>
      </g>
      <g id="Group_7216" data-name="Group 7216" transform="translate(113.662 415.691)">
        <path id="Path_28191" data-name="Path 28191" d="M57.514,100.212a33.33,33.33,0,0,0,9.78-.23c1.41-.235.815-2.378-.59-2.143a31.384,31.384,0,0,1-9.19.153c-1.416-.18-1.405,2.045,0,2.22Z" transform="translate(-56.456 -97.822)" fill="#016fc2"/>
      </g>
      <g id="Group_7217" data-name="Group 7217" transform="translate(27.306 345.194)">
        <path id="Path_28192" data-name="Path 28192" d="M44.047,85.995c1.055,13.033-.432,26.269-1.17,39.291l-2.214,38.958c-.082,1.432,2.143,1.427,2.225,0q1.107-19.476,2.214-38.958c.738-13.022,2.225-26.263,1.164-39.291-.115-1.416-2.34-1.432-2.22,0Z" transform="translate(-40.661 -84.927)" fill="#016fc2"/>
      </g>
      <path id="Path_28193" data-name="Path 28193" d="M159.186,67.581c-10.814.377-51.133-5.872-43.211-24.448,4.385-10.278,16.073-2.651,22.513-1.542-4.095-10.5,15.439-28.215,22.256-14.329,3.149,6.4,2.7,16.084,2.313,23.1C162.833,54.537,161.6,64.339,159.186,67.581Z" transform="translate(318.504 -20.123)" fill="#2b2d42"/>
    </g>
  </g>
</svg>
