<svg xmlns="http://www.w3.org/2000/svg" viewBox="0 0 15.2 15.2">
    <g id="medical-records" transform="translate(0.1 0.1)">
        <path id="Path_50475" data-name="Path 50475" d="M13.389,3.574H12.92V3.369a.439.439,0,0,0-.129-.311L9.862.129A.439.439,0,0,0,9.551,0H2.52A.439.439,0,0,0,2.08.439V2.988H1.611A1.613,1.613,0,0,0,0,4.6v8.789A1.613,1.613,0,0,0,1.611,15H13.389A1.613,1.613,0,0,0,15,13.389v-8.2A1.613,1.613,0,0,0,13.389,3.574Zm0,.879a.733.733,0,0,1,.732.732v.323a1.6,1.6,0,0,0-.732-.177H12.92V4.453ZM9.99,1.5,11.42,2.93H10.137a.147.147,0,0,1-.146-.146ZM2.959.879H9.111v1.9a1.027,1.027,0,0,0,1.025,1.025h1.9V5.332H7.772L7.045,3.879A1.6,1.6,0,0,0,5.6,2.988H2.959Zm11.162,12.51a.733.733,0,0,1-.732.732H1.611a.733.733,0,0,1-.732-.732V4.6a.733.733,0,0,1,.732-.732H5.6a.728.728,0,0,1,.655.4l.848,1.7a.439.439,0,0,0,.393.243h5.889a.733.733,0,0,1,.732.732Z" fill="#2b2d42" stroke="#2b2d42" stroke-width="0.2"></path>
        <path id="Path_50476" data-name="Path 50476" d="M166.947,253.7h-1.189V252.51a.51.51,0,0,0-.51-.51h-2.039a.51.51,0,0,0-.51.51V253.7H161.51a.51.51,0,0,0-.51.51v2.039a.51.51,0,0,0,.51.51H162.7v1.189a.51.51,0,0,0,.51.51h2.039a.51.51,0,0,0,.51-.51v-1.189h1.189a.51.51,0,0,0,.51-.51v-2.039A.51.51,0,0,0,166.947,253.7Zm-.51,2.039h-1.189a.51.51,0,0,0-.51.51v1.189h-1.02v-1.189a.51.51,0,0,0-.51-.51H162.02v-1.019h1.189a.51.51,0,0,0,.51-.51v-1.189h1.02v1.189a.51.51,0,0,0,.51.51h1.189Z" transform="translate(-156.728 -245.836)" fill="#2b2d42" stroke="#2b2d42" stroke-width="0.2"></path>
    </g>
</svg>