<svg xmlns="http://www.w3.org/2000/svg" viewBox="0 0 15 12.484">
    <g id="heart" transform="translate(0)">
        <path id="Path_48094" dataName="Path 48094" d="M13.795,6.921a4.188,4.188,0,0,0-5.916,0L7.5,7.3l-.379-.379a4.188,4.188,0,0,0-5.916,0,4.231,4.231,0,0,0-.024,5.891c1.445,1.606,5.706,5.074,5.887,5.221a.659.659,0,0,0,.417.148H7.5a.638.638,0,0,0,.432-.148c.181-.147,4.442-3.615,5.888-5.221A4.231,4.231,0,0,0,13.795,6.921Zm-.96,5.005A70.607,70.607,0,0,1,7.5,16.674a70.457,70.457,0,0,1-5.334-4.748,2.924,2.924,0,0,1-.024-4.069,2.862,2.862,0,0,1,4.043,0l.833.833a.641.641,0,0,0,.355.179.664.664,0,0,0,.609-.179l.833-.833a2.863,2.863,0,0,1,4.043,0A2.924,2.924,0,0,1,12.834,11.926Z" transform="translate(0 -5.697)" fill="#161e3e"></path>
    </g>
</svg>