<svg xmlns="http://www.w3.org/2000/svg" viewBox="0 0 15.2 14.89">
    <g id="inbox" transform="translate(0.1 -4.317)">
        <g id="layer3" transform="translate(0 4.417)">
            <g id="g1384" transform="translate(0 0)">
                <g id="path918-5">
                    <path id="Path_50469" data-name="Path 50469" d="M24.7,295.121a2.241,2.241,0,0,0-1.245.376L18.2,299a2.249,2.249,0,0,0-1,1.87v6.7a2.262,2.262,0,0,0,2.252,2.248H29.944a2.263,2.263,0,0,0,2.254-2.248v-6.7a2.25,2.25,0,0,0-1-1.87l-5.251-3.5A2.245,2.245,0,0,0,24.7,295.121Zm0,1.5a.748.748,0,0,1,.416.126l5.247,3.5a.753.753,0,0,1,.337.625v6.7a.74.74,0,0,1-.753.748H19.45a.74.74,0,0,1-.753-.748v-6.7a.754.754,0,0,1,.338-.625l5.247-3.5A.744.744,0,0,1,24.7,296.616Zm-4.5,4.188a.75.75,0,0,0-.41,1.384l4.5,3a.75.75,0,0,0,.83,0l4.5-3a.751.751,0,0,0-.784-1.28l-.045.03L24.7,303.661l-4.084-2.724A.751.751,0,0,0,20.193,300.8Z" transform="translate(-17.198 -295.121)" stroke="#f5f6f9" stroke-width="0.2"></path>
                </g>
            </g>
        </g>
    </g>
</svg>