<svg xmlns="http://www.w3.org/2000/svg" viewBox="0 0 12.43 15">
    <path id="insurance" d="M2.888,15l-.233-.106a14.008,14.008,0,0,1-5.237-4.116,3.512,3.512,0,0,1-.751-2.17V0l.816.35A6.451,6.451,0,0,0,.017.975,5.7,5.7,0,0,0,2.588.186L2.888,0l.305.178A6.12,6.12,0,0,0,5.807.946a6.6,6.6,0,0,0,2.48-.6L9.1.01V8.691a3.488,3.488,0,0,1-.663,2.053A12.291,12.291,0,0,1,3.124,14.9ZM-2.162,1.743V8.609a2.337,2.337,0,0,0,.5,1.444,12.855,12.855,0,0,0,4.57,3.668A11.086,11.086,0,0,0,7.486,10.06a2.325,2.325,0,0,0,.442-1.369V1.735a6.681,6.681,0,0,1-2.12.381,6.955,6.955,0,0,1-2.9-.767,6.585,6.585,0,0,1-2.889.8A6.78,6.78,0,0,1-2.162,1.743ZM6.513,5.4l-.827-.827L2.247,8.008.343,6.1l-.827.827L2.247,9.662Zm0,0" transform="translate(3.332)" fill="#2b2d42"></path>
</svg>