<svg xmlns="http://www.w3.org/2000/svg" viewBox="0 0 15 15">
    <g id="log-out" transform="translate(-126.235 -159.242)">
        <path id="Path_48098" data-name="Path 48098" d="M127.735,169.742v1.5a3,3,0,0,0,3,3h7.5a3,3,0,0,0,3-3v-9a3,3,0,0,0-3-3h-7.5a3,3,0,0,0-3,3v1.5a.75.75,0,0,0,1.5,0v-1.5a1.5,1.5,0,0,1,1.5-1.5h7.5a1.5,1.5,0,0,1,1.5,1.5v9a1.5,1.5,0,0,1-1.5,1.5h-7.5a1.5,1.5,0,0,1-1.5-1.5v-1.5a.75.75,0,0,0-1.5,0Zm5.69-3.75-.97-.969a.75.75,0,1,1,1.061-1.061l2.25,2.25a.75.75,0,0,1,0,1.061l-2.25,2.25a.75.75,0,0,1-1.061-1.061l.97-.97h-6.44a.75.75,0,0,1,0-1.5Z" transform="translate(0 0)" fill="#161e3e" fill-rule="evenodd"></path>
    </g>
</svg>