<svg xmlns="http://www.w3.org/2000/svg" viewBox="0 0 16.775 11.183"> <path id="video" d="M16.341,4.176a1.57,1.57,0,0,0-1.631.085L11.683,6.293V4.677A1.679,1.679,0,0,0,10.006,3H2.177A1.679,1.679,0,0,0,.5,4.677v7.828a1.679,1.679,0,0,0,1.677,1.677h7.828a1.679,1.679,0,0,0,1.677-1.677V10.89l3.027,2.031a1.559,1.559,0,0,0,1.63.085,1.816,1.816,0,0,0,.934-1.622V5.8a1.816,1.816,0,0,0-.934-1.622Zm-5.776,8.329a.56.56,0,0,1-.559.559H2.177a.56.56,0,0,1-.559-.559V4.677a.56.56,0,0,1,.559-.559h7.828a.56.56,0,0,1,.559.559Zm5.592-1.121a.7.7,0,0,1-.342.636.445.445,0,0,1-.481-.027l-3.651-2.45v-1.9l3.65-2.449a.453.453,0,0,1,.482-.027.7.7,0,0,1,.342.635Z" transform="translate(-0.5 -3)" fill="#161e3e"></path> </svg>