<svg xmlns="http://www.w3.org/2000/svg"  viewBox="0 0 14.539 15">
    <path id="setting" d="M21.984,8.692l-.624-.514a.879.879,0,0,1,0-1.357l.624-.514a1.168,1.168,0,0,0,.27-1.491L21.021,2.683A1.168,1.168,0,0,0,19.6,2.171l-.757.284a.879.879,0,0,1-1.175-.679l-.133-.8A1.168,1.168,0,0,0,16.375,0H13.91a1.168,1.168,0,0,0-1.156.979l-.133.8a.879.879,0,0,1-1.175.679l-.757-.284a1.168,1.168,0,0,0-1.426.511L8.031,4.817A1.168,1.168,0,0,0,8.3,6.308l.624.514a.879.879,0,0,1,0,1.357L8.3,8.692a1.168,1.168,0,0,0-.27,1.491l1.232,2.134a1.168,1.168,0,0,0,1.426.511l.757-.284a.879.879,0,0,1,1.175.679l.133.8A1.168,1.168,0,0,0,13.91,15h2.464a1.168,1.168,0,0,0,1.156-.979l.133-.8a.879.879,0,0,1,1.175-.679l.757.284a1.168,1.168,0,0,0,1.426-.511l1.232-2.134a1.168,1.168,0,0,0-.27-1.491Zm-1.977,3.039-.757-.284a2.051,2.051,0,0,0-2.742,1.583l-.133.8H13.91l-.133-.8a2.051,2.051,0,0,0-2.742-1.583l-.757.284L9.046,9.6l.624-.514a2.051,2.051,0,0,0,0-3.167L9.046,5.4l1.232-2.134.757.284a2.051,2.051,0,0,0,2.742-1.583l.133-.8h2.464l.133.8A2.051,2.051,0,0,0,19.25,3.552l.757-.284L21.239,5.4h0l-.624.514a2.051,2.051,0,0,0,0,3.167l.624.514ZM15.142,4.609A2.891,2.891,0,1,0,18.033,7.5,2.894,2.894,0,0,0,15.142,4.609Zm0,4.609A1.719,1.719,0,1,1,16.861,7.5,1.721,1.721,0,0,1,15.142,9.219Z" transform="translate(-7.873)" fill="#2b2d42"></path>
</svg>