<svg xmlns="http://www.w3.org/2000/svg" viewBox="0 0 15.2 15.2">
    <g id="customer-service" transform="translate(0.1 0.1)">
        <path id="Path_50477" data-name="Path 50477" d="M14.169,6.245a1.471,1.471,0,0,0-.927-.194V5.742a5.742,5.742,0,0,0-11.484,0v.309a1.471,1.471,0,0,0-.927.194A2.337,2.337,0,0,0,0,8.379a2.363,2.363,0,0,0,.832,2.145,1.478,1.478,0,0,0,.925.2v.317a.439.439,0,0,0,.439.439H3.955a.439.439,0,0,0,.439-.439v-5.3A.439.439,0,0,0,3.955,5.3h-1.3a4.863,4.863,0,0,1,9.686,0h-1.3a.439.439,0,0,0-.439.439v5.3a.439.439,0,0,0,.439.439h1.318v.439a1.32,1.32,0,0,1-1.318,1.318H9.622a1.32,1.32,0,0,0-1.243-.879H7.5A1.318,1.318,0,0,0,7.5,15h.879a1.32,1.32,0,0,0,1.243-.879h1.423a2.2,2.2,0,0,0,2.2-2.2v-1.2a1.478,1.478,0,0,0,.925-.2A2.362,2.362,0,0,0,15,8.379a2.337,2.337,0,0,0-.831-2.134ZM1.758,9.843A.654.654,0,0,1,1.3,9.78c-.271-.17-.421-.668-.421-1.4s.146-1.218.411-1.385a.65.65,0,0,1,.468-.055ZM3.516,6.182v4.424H2.637V6.182Zm4.863,7.939H7.5a.439.439,0,0,1,0-.879h.879a.439.439,0,0,1,0,.879Zm3.984-3.516h-.879V6.182h.879Zm1.34-.828a.654.654,0,0,1-.461.064v-2.9a.65.65,0,0,1,.468.055c.265.167.411.658.411,1.385s-.148,1.227-.418,1.4Z" fill="#2b2d42" stroke="#2b2d42" stroke-width="0.2"></path>
    </g>
</svg>